<svg xmlns="http://www.w3.org/2000/svg" width="48" height="48" viewBox="0 0 48 48">
    <path fill="#999" fill-rule="nonzero" d="M42.481 2H5.76C3.754 2 2 3.444 2 5.427v36.802C2 44.223 3.754 46 5.76 46h36.71c2.017 0 3.53-1.788 3.53-3.77V5.426C46.01 3.444 44.487 2 42.48 2zM15.64 38.676H9.335V19.077h6.304v19.6zm-2.934-22.579h-.046c-2.017 0-3.324-1.501-3.324-3.38 0-1.915 1.341-3.382 3.404-3.382 2.063 0 3.324 1.456 3.37 3.381 0 1.88-1.307 3.381-3.404 3.381zm25.971 22.58h-6.304V27.96c0-2.567-.916-4.321-3.197-4.321-1.742 0-2.774 1.18-3.232 2.327-.172.412-.218.974-.218 1.547v11.163H19.42V19.077h6.304v2.728c.917-1.306 2.35-3.186 5.685-3.186 4.137 0 7.266 2.728 7.266 8.607v11.45z"/>
</svg>
