<svg xmlns="http://www.w3.org/2000/svg" xmlns:xlink="http://www.w3.org/1999/xlink" width="48" height="48" viewBox="0 0 48 48">
    <defs>
        <path id="a" d="M33.6 18.323h11.659C45.74 20.133 46 22.037 46 24c0 1.963-.259 3.866-.741 5.677h-11.66a48.163 48.163 0 0 0 0-11.354zM17.72 32.516c.948 4.762 2.943 9.981 6.221 13.483L24 46h.059c3.283-3.509 5.275-8.731 6.22-13.484H17.721zm15.448-17.032H44.29C41.458 8.744 35.366 3.713 27.988 2.36c2.682 3.826 4.33 8.546 5.18 13.123zm-2.427 2.839H17.26a45.523 45.523 0 0 0 0 11.354h13.483a45.52 45.52 0 0 0 0-11.354zM14.832 32.516H3.71c2.832 6.74 8.924 11.771 16.302 13.123-2.683-3.827-4.33-8.548-5.18-13.123zm18.336 0c-.85 4.578-2.499 9.298-5.18 13.123 7.378-1.352 13.47-6.383 16.302-13.123H33.168zm-2.889-17.032C29.332 10.722 27.337 5.503 24.06 2L24 2h-.059c-3.283 3.509-5.275 8.731-6.22 13.484h12.558zM2.741 18.323A22.025 22.025 0 0 0 2 24c0 1.963.259 3.866.741 5.677h11.66a48.163 48.163 0 0 1 0-11.354H2.74zm12.091-2.84c.85-4.577 2.499-9.297 5.18-13.122C12.635 3.713 6.543 8.744 3.71 15.484h11.122z"/>
    </defs>
    <use fill="#999" fill-rule="nonzero" xlink:href="#a"/>
</svg>
