<svg xmlns="http://www.w3.org/2000/svg" width="208" height="140" viewBox="0 0 208 140">
    <g fill="#FFF" fill-rule="nonzero">
        <path d="M5.476 83.23c3.65 3.44 8.323 5.16 14.02 5.16 5.855 0 10.577-1.72 14.166-5.16 3.589-3.441 5.384-7.94 5.384-13.499 0-5.733-1.874-10.26-5.622-13.576-3.749-3.317-8.416-4.975-14.007-4.975-5.537 0-10.159 1.675-13.862 5.027C1.852 59.56 0 64.007 0 69.547c0 5.68 1.825 10.242 5.476 13.682zm4.023-26.397c2.306-2.908 5.625-4.362 9.957-4.362 4.403 0 7.762 1.49 10.077 4.469 2.316 2.978 3.475 7.26 3.475 12.845 0 5.744-1.176 10.067-3.528 12.965-2.352 2.9-5.55 4.349-9.599 4.349-4.615 0-8.076-1.45-10.382-4.35-2.307-2.897-3.46-7.238-3.46-13.018 0-5.69 1.153-9.989 3.46-12.898zM76.412 81.15c.81 1.926 1.215 3.085 1.215 3.473 0 .762-.305 1.269-.914 1.526-.609.257-1.782.385-3.521.385v1.21h14.089v-1.21c-1.246-.124-2.18-.428-2.803-.913-.624-.485-1.12-1.152-1.487-2l-1.631-3.76-11.924-28.52h-1.084L57.906 76.225a461.35 461.35 0 0 1-1.298 3.08c-1.096 2.816-2.032 4.665-2.81 5.54-.777.878-1.96 1.441-3.55 1.689v1.21h10.707v-1.21c-1.147 0-2.086-.279-2.816-.835-.731-.556-1.096-1.373-1.096-2.451 0-1.007.687-3.162 2.06-6.463l.939-2.279h13.636l2.734 6.644zm-15.836-7.935l6.296-15.232 6.274 15.232h-12.57zm42.411 14.125c.282-1.492.714-2.654 1.294-3.479 2.625 3.02 5.902 4.529 9.83 4.529 3.418 0 6.148-.961 8.192-2.885 2.042-1.924 3.065-4.42 3.065-7.49 0-1.94-.422-3.652-1.267-5.133-.844-1.482-1.964-2.642-3.362-3.48-1.398-.838-3.636-1.944-6.713-3.32-3.22-1.443-5.444-2.746-6.673-3.906-1.247-1.143-1.87-2.54-1.87-4.193 0-1.371.497-2.633 1.49-3.785.994-1.15 2.555-1.727 4.683-1.727 2.234 0 4.198.777 5.897 2.33 1.696 1.555 2.879 3.684 3.549 6.387h1.127v-9.363h-1.127c-.106 1.13-.564 2.18-1.374 3.152-1.41-1.547-2.785-2.567-4.124-3.059a12.34 12.34 0 0 0-4.28-.738c-2.715 0-4.957.851-6.728 2.553-1.771 1.703-2.655 3.834-2.655 6.393 0 1.676.409 3.255 1.229 4.738a9.903 9.903 0 0 0 3.424 3.613c1.461.927 3.629 2.01 6.502 3.245 3.225 1.377 5.445 2.666 6.663 3.866 1.217 1.218 1.825 2.726 1.825 4.524 0 1.783-.693 3.392-2.077 4.83-1.384 1.437-3.338 2.157-5.86 2.157-5.607 0-9.16-3.767-10.66-11.3H101.7v11.54h1.288zm71.802 0c.282-1.492.714-2.654 1.295-3.479 2.624 3.02 5.9 4.529 9.83 4.529 3.417 0 6.148-.961 8.191-2.885 2.042-1.924 3.065-4.42 3.065-7.49 0-1.94-.422-3.652-1.266-5.133-.844-1.482-1.965-2.642-3.363-3.48-1.397-.838-3.635-1.944-6.713-3.32-3.22-1.443-5.443-2.746-6.672-3.906-1.248-1.143-1.87-2.54-1.87-4.193 0-1.371.496-2.633 1.49-3.785.994-1.15 2.555-1.727 4.683-1.727 2.233 0 4.198.777 5.896 2.33 1.697 1.555 2.88 3.684 3.549 6.387h1.127v-9.363h-1.127c-.106 1.13-.564 2.18-1.374 3.152-1.41-1.547-2.785-2.567-4.123-3.059a12.342 12.342 0 0 0-4.28-.738c-2.715 0-4.957.851-6.728 2.553-1.772 1.703-2.656 3.834-2.656 6.393 0 1.676.408 3.255 1.229 4.738a9.915 9.915 0 0 0 3.424 3.613c1.462.927 3.63 2.01 6.502 3.245 3.226 1.377 5.446 2.666 6.663 3.866 1.217 1.218 1.826 2.726 1.826 4.524 0 1.783-.693 3.392-2.077 4.83-1.385 1.437-3.339 2.157-5.86 2.157-5.608 0-9.161-3.767-10.661-11.3h-1.287v11.54h1.287zM3.4 125.414H2.047l-1.526 10.87h1.351l1.526-10.87zm7.311 3.714c-.397-.128-1.176-.224-1.685-.224-3.481 0-4.848 2.407-4.848 4.687 0 1.56 1.033 2.836 2.353 2.836.683 0 1.367-.398 1.923-1.004l.032.031-.127.83h1.35l1.002-7.156zm-2.066 5.084c-.414.557-1.13 1.1-1.67 1.1-.826 0-1.414-.814-1.414-1.96 0-.957.588-3.523 3.672-3.268l-.588 4.128zm12.335-5.084h-1.367l.254-1.467H18.53l-.27 1.467h-1.303l-.16 1.052h1.257l-.748 4.335c-.19 1.099.462 1.992 1.86 1.992.525 0 .907-.08 1.479-.319l.079-1.323c-.588.334-.906.43-1.303.43-.652 0-.859-.286-.7-1.194l.684-3.92h1.43l.144-1.053zm3.353 0h-1.35l-1.002 7.155h1.351l.556-4.03c.747-1.404 1.224-1.834 1.924-1.834.286 0 .508.063.826.238v-1.529a1.357 1.357 0 0 0-.588-.112c-.683 0-1.05.287-1.892 1.499l-.031-.033.206-1.354zm9.287 0c-.398-.128-1.176-.224-1.685-.224-3.481 0-4.848 2.407-4.848 4.687 0 1.56 1.033 2.836 2.352 2.836.684 0 1.367-.398 1.924-1.004l.032.031-.128.83h1.351l1.002-7.156zm-2.067 5.084c-.413.557-1.128 1.1-1.669 1.1-.826 0-1.415-.814-1.415-1.96 0-.957.589-3.523 3.672-3.268l-.588 4.128zm5.738-5.084h-1.35l-1.002 7.155h1.335l.652-4.557c1.017-1.323 1.765-1.594 2.146-1.594.413 0 .953.35.779 1.594l-.652 4.557h1.335l.684-4.51c.19-1.179-.19-2.757-1.701-2.757-.795 0-1.59.447-2.369 1.403l-.031-.032.174-1.259zm10.237.525c-.667-.462-1.415-.749-2.161-.749-1.368 0-2.242.83-2.242 2.057 0 1.944 2.798 2.375 2.798 3.57 0 .461-.382.796-.922.796-.572 0-1.256-.318-2.194-1.067l-.239 1.306c1.018.717 1.59.941 2.48.941 1.256 0 2.21-.845 2.21-2.136 0-1.976-2.845-2.47-2.845-3.49 0-.414.413-.749.97-.749.587 0 1.335.319 2.145.94v-1.419zm3.688-.525h-1.351l-1.002 7.155h1.351l1.002-7.155zm-.43-3.028a.78.78 0 0 0 0 1.561.781.781 0 0 0 0-1.561zm5.707 3.028h-1.367l.254-1.467h-1.335l-.27 1.467H52.47l-.159 1.052h1.256l-.747 4.335c-.19 1.099.461 1.992 1.86 1.992.524 0 .906-.08 1.478-.319l.08-1.323c-.588.334-.906.43-1.304.43-.651 0-.858-.286-.7-1.194l.684-3.92h1.43l.144-1.053zm3.131 0h-1.351l-1.001 7.155h1.35l1.002-7.155zm-.429-3.028a.78.78 0 0 0 0 1.561.781.781 0 0 0 0-1.561zm7.82 5.928c0-1.88-1.032-3.124-2.654-3.124-1.94 0-3.417 1.898-3.417 4.4 0 2.007 1.001 3.203 2.686 3.203 1.876 0 3.386-1.802 3.386-4.479zm-4.689 1.419c0-1.816.875-3.474 2.035-3.474.779 0 1.272.781 1.272 1.975 0 1.977-.922 3.396-2.05 3.396-.7 0-1.257-.75-1.257-1.897zm8.473-4.319h-1.351l-1.002 7.155h1.335l.652-4.557c1.018-1.323 1.764-1.594 2.146-1.594.413 0 .954.35.779 1.594l-.652 4.557h1.336l.683-4.51c.19-1.179-.19-2.757-1.7-2.757-.796 0-1.59.447-2.37 1.403l-.031-.032.175-1.259zm17.087 0c-.397-.128-1.176-.224-1.685-.224-3.48 0-4.848 2.407-4.848 4.687 0 1.56 1.033 2.836 2.353 2.836.684 0 1.367-.398 1.923-1.004l.032.031-.127.83h1.351l1.001-7.156zm-2.066 5.084c-.413.557-1.129 1.1-1.669 1.1-.827 0-1.415-.814-1.415-1.96 0-.957.588-3.523 3.672-3.268l-.588 4.128zm6.231-6.9h-1.35l-.367 2.629c-.731.574-1.383 1.673-1.383 2.167 0 .064.016.095.064.095.127 0 .477-.78 1.192-1.306l-1.272 9.052h1.352l.476-3.442h.89c3.1 0 4.308-2.471 4.308-4.272 0-1.912-1.27-3.33-2.956-3.33-.223 0-.43.016-.62.047-.19.032-.382.097-.589.176l.255-1.817zm-.398 2.82c.382-.176.541-.207.89-.207 1.034 0 2.035.7 2.035 2.31 0 1.403-.922 3.124-3.004 3.124h-.652l.731-5.227zm8.664-2.82h-1.352l-.365 2.629c-.731.574-1.383 1.673-1.383 2.167 0 .064.016.095.064.095.127 0 .476-.78 1.192-1.306L97.2 139.95h1.351l.477-3.442h.89c3.1 0 4.308-2.471 4.308-4.272 0-1.912-1.272-3.33-2.957-3.33-.222 0-.429.016-.62.047-.19.032-.38.097-.587.176l.254-1.817zm-.398 2.82c.382-.176.54-.207.89-.207 1.034 0 2.035.7 2.035 2.31 0 1.403-.922 3.124-3.004 3.124h-.652l.731-5.227zm8.282-1.004h-1.351l-1.002 7.155h1.351l.557-4.03c.747-1.404 1.223-1.834 1.923-1.834.286 0 .508.063.827.238v-1.529a1.356 1.356 0 0 0-.589-.112c-.684 0-1.049.287-1.891 1.499l-.032-.033.207-1.354zm8.524 5.291c-.892.653-1.654.972-2.321.972-1.114 0-2.162-.909-1.829-2.821h4.452c.301-2.183-.891-3.666-2.48-3.666-1.908 0-3.386 1.801-3.386 4.145 0 2.087 1.176 3.458 2.989 3.458.858 0 1.668-.271 2.384-.796l.19-1.292zm-3.943-2.788c.366-1.084.907-1.61 1.701-1.61.89 0 1.288.7 1.288 1.61h-2.989zm8.043-2.503h-1.35l-1.003 7.155h1.336l.651-4.557c1.018-1.323 1.765-1.594 2.146-1.594.414 0 .954.35.78 1.594l-.652 4.557h1.334l.684-4.51c.19-1.179-.19-2.757-1.7-2.757-.795 0-1.59.447-2.369 1.403l-.032-.032.175-1.259zm12.192 0c-.397-.128-1.176-.224-1.685-.224-3.481 0-4.849 2.407-4.849 4.687 0 1.56 1.034 2.836 2.354 2.836.683 0 1.367-.398 1.923-1.004l.032.031-.128.83h1.352l1-7.156zm-2.066 5.084c-.414.557-1.13 1.1-1.67 1.1-.826 0-1.414-.814-1.414-1.96 0-.957.588-3.523 3.672-3.268l-.588 4.128zm5.738-5.084h-1.352l-1 7.155h1.334l.652-4.557c1.018-1.323 1.765-1.594 2.146-1.594.413 0 .954.35.778 1.594l-.65 4.557h1.335l.683-4.51c.191-1.179-.19-2.757-1.701-2.757-.795 0-1.59.447-2.368 1.403l-.032-.032.175-1.259zm9.632 0h-1.367l.255-1.467h-1.335l-.27 1.467H142.3l-.16 1.052h1.257l-.747 4.335c-.19 1.099.46 1.992 1.86 1.992.524 0 .906-.08 1.478-.319l.079-1.323c-.588.334-.906.43-1.303.43-.652 0-.859-.286-.7-1.194l.683-3.92h1.431l.143-1.053zm6.581 5.291c-.89.653-1.653.972-2.32.972-1.113 0-2.162-.909-1.828-2.821h4.45c.302-2.183-.89-3.666-2.48-3.666-1.907 0-3.385 1.801-3.385 4.145 0 2.087 1.176 3.458 2.988 3.458.859 0 1.67-.271 2.384-.796l.191-1.292zm-3.942-2.788c.365-1.084.906-1.61 1.7-1.61.89 0 1.289.7 1.289 1.61h-2.989zM9.276 102.145c-1.324-.424-2.119-.584-3.152-.584-3.391 0-5.776 2.63-5.776 6.375 0 3.613 2.332 6.03 5.829 6.03 1.113 0 1.96-.16 3.311-.611v-1.328c-1.324.53-2.12.69-3.205.69-2.809 0-4.583-1.912-4.583-4.914 0-2.974 1.828-4.993 4.477-4.993 1.006 0 1.722.16 3.1.744v-1.409zm15.287 5.632c0-3.56-2.57-6.216-6.04-6.216-3.471 0-6.068 2.656-6.068 6.216 0 3.532 2.597 6.188 6.067 6.188s6.04-2.656 6.04-6.188zm-1.351 0c0 2.842-2.014 4.94-4.69 4.94-2.702 0-4.716-2.098-4.716-4.94 0-2.87 2.014-4.967 4.716-4.967 2.676 0 4.69 2.124 4.69 4.967zm6.463-5.976h-1.271v11.926h1.271v-8.367c1.06-1.726 2.172-2.55 3.895-2.55 2.093 0 3.232 1.434 3.232 4.117v6.8h1.272v-7.278c0-3.214-1.881-4.888-4.425-4.888-1.722 0-2.808.638-3.92 2.312h-.054V101.8zm19.314.77c-1.193-.69-2.147-1.01-3.18-1.01-2.146 0-3.841 1.435-3.841 3.268 0 3.824 6.172 2.974 6.172 5.817 0 1.221-1.06 2.071-2.516 2.071-1.14 0-2.173-.292-3.736-1.089v1.25c1.219.743 2.358 1.087 3.577 1.087 2.199 0 3.894-1.434 3.894-3.293 0-4.143-6.173-3.055-6.173-5.923 0-1.142 1.113-2.019 2.544-2.019 1.06 0 1.934.345 3.259 1.221v-1.38zm12.291 11.156h1.272v-11.926H61.28v8.367c-1.033 1.62-1.986 2.55-3.868 2.55-1.748 0-3.258-1.143-3.258-3.56v-7.357h-1.272v7.384c0 3.56 2.385 4.78 4.425 4.78 1.854 0 2.834-.663 3.92-2.204h.053v1.966zm5.855 0h1.272V95.612h-1.272v18.115zm8.16-15.885h-.398l-.874 1.117v2.842h-3.206v1.036h3.206v8.579c0 1.806 1.43 2.55 2.755 2.55.424 0 .927-.106 1.378-.212.45-.133.848-.267 1.086-.4v-1.222c-1.06.48-1.457.585-2.172.585-1.749 0-1.775-.743-1.775-2.789v-7.091h3.338V101.8h-3.338v-3.959zm16.24 13.813c-.636.504-1.405 1.062-1.696 1.062-.212 0-.291-.132-.291-.61v-7.438c0-2.497-2.226-3.108-3.71-3.108-1.298 0-2.384.373-3.841 1.276v1.3c1.404-1.062 2.358-1.513 3.63-1.513 1.775 0 2.649.85 2.649 2.443v1.515c-3.47.159-6.941 1.248-6.941 4.356 0 1.673 1.404 3.027 3.205 3.027 1.272 0 2.411-.45 3.736-1.487.105 1.196.265 1.487.848 1.487.503 0 1.006-.185 2.199-1.088l.211-.16v-1.062zm-3.26-.293c-1.245 1.116-2.171 1.542-3.31 1.542-1.352 0-2.359-.85-2.359-1.966 0-2.072 2.57-3.426 5.67-3.294v3.718zm7.392-9.561h-1.272v11.926h1.272v-8.367c1.06-1.726 2.172-2.55 3.895-2.55 2.093 0 3.232 1.434 3.232 4.117v6.8h1.271v-7.278c0-3.214-1.881-4.888-4.424-4.888-1.722 0-2.809.638-3.921 2.312h-.053V101.8zm15.1-3.959h-.397l-.874 1.117v2.842h-3.206v1.036h3.206v8.579c0 1.806 1.43 2.55 2.756 2.55.423 0 .927-.106 1.376-.212.451-.133.848-.267 1.087-.4v-1.222c-1.06.48-1.457.585-2.173.585-1.748 0-1.775-.743-1.775-2.789v-7.091h3.339V101.8h-3.339v-3.959zm13.273 4.729c-1.192-.69-2.146-1.01-3.179-1.01-2.147 0-3.842 1.435-3.842 3.268 0 3.824 6.173 2.974 6.173 5.817 0 1.221-1.06 2.071-2.517 2.071-1.139 0-2.172-.292-3.736-1.089v1.25c1.22.743 2.36 1.087 3.577 1.087 2.2 0 3.895-1.434 3.895-3.293 0-4.143-6.173-3.055-6.173-5.923 0-1.142 1.112-2.019 2.543-2.019 1.06 0 1.934.345 3.26 1.221v-1.38zM161.108 122.658c2.842 0 5.154 2.318 5.154 5.167 0 2.85-2.312 5.167-5.154 5.167s-5.154-2.318-5.154-5.167c0-2.849 2.312-5.167 5.154-5.167zm0 .567c-2.53 0-4.588 2.064-4.588 4.6 0 2.537 2.058 4.6 4.588 4.6 2.53 0 4.588-2.063 4.588-4.6 0-2.536-2.058-4.6-4.588-4.6zm-.15 1.936c.971 0 1.577.516 1.577 1.35 0 .556-.289.973-.803 1.177.437.289.704.734 1.07 1.334.204.331.324.494.655.953h-.824l-.634-.989c-.633-.987-.921-1.1-1.273-1.1h-.289v2.09h-.69v-4.815zm-.078.593h-.443v1.51h.443c.74 0 .951-.38.944-.783-.007-.45-.275-.727-.944-.727z"/>
        <path d="M201.49 5.83c2.352-.037 8.348 1.33 5.108 4.862l-46.605 50.802.026 50.643c.003 6.98-19.806 10.42-19.808 5.321-.01-17.5-.02-35-.027-52.5 0-1.406.811-2.665 2.095-3.743 15.357-16.739 30.712-33.478 46.068-50.219 3.202-3.488 8.527-5.09 13.143-5.165zm-92.346 1.988c-2.361-4.936 16.87-11.467 19.808-5.322l17.364 36.306c2.36 4.935-16.868 11.466-19.807 5.321z"/>
    </g>
</svg>
