<svg xmlns="http://www.w3.org/2000/svg" width="41" height="40" viewBox="0 0 41 40">
    <g fill="none" fill-rule="evenodd" transform="translate(.182)">
        <path d="M0 0H40V40H0z"/>
        <circle cx="20" cy="20" r="19.091" stroke="#999" stroke-width="1.818"/>
        <path fill="#999" d="M27.751 15.314a4.1 4.1 0 001.721-2.284 7.596 7.596 0 01-2.487 1.002 3.813 3.813 0 00-2.859-1.305c-2.163 0-3.915 1.85-3.915 4.13 0 .325.032.64.1.942-3.255-.173-6.14-1.816-8.073-4.317a4.294 4.294 0 00-.53 2.078c0 1.433.691 2.697 1.743 3.44a3.777 3.777 0 01-1.775-.517v.05c0 2.003 1.349 3.673 3.143 4.05-.33.098-.675.146-1.033.146-.253 0-.5-.025-.737-.073.498 1.64 1.945 2.836 3.659 2.868a7.604 7.604 0 01-5.799 1.711 10.68 10.68 0 006.004 1.856c7.205 0 11.143-6.295 11.143-11.753 0-.18-.002-.358-.01-.535A8.187 8.187 0 0030 14.664a7.507 7.507 0 01-2.249.65z"/>
    </g>
</svg>
