<svg xmlns="http://www.w3.org/2000/svg" width="32" height="32" viewBox="0 0 32 32">
    <defs>
        <linearGradient id="prefix__a" x1="95.82%" x2="4.18%" y1="0%" y2="100%">
            <stop offset="0%" stop-color="#B837B3"/>
            <stop offset="100%" stop-color="#7F267B"/>
        </linearGradient>
    </defs>
    <path fill="url(#prefix__a)" d="M28.131 18.255l2.738 1.581c.313.18.458.554.351.899a15.91 15.91 0 01-3.514 6.078.772.772 0 01-.953.144l-2.736-1.58a12.31 12.31 0 01-3.905 2.257v3.16c0 .362-.25.674-.602.754-2.246.504-4.659.53-7.018 0a.773.773 0 01-.604-.753v-3.16a12.309 12.309 0 01-3.905-2.258l-2.736 1.58a.772.772 0 01-.953-.144A15.912 15.912 0 01.78 20.735a.773.773 0 01.35-.899l2.739-1.58a12.432 12.432 0 010-4.511l-2.738-1.581a.773.773 0 01-.351-.899 15.91 15.91 0 013.514-6.077.772.772 0 01.953-.145l2.736 1.58a12.31 12.31 0 013.905-2.257v-3.16c0-.362.25-.674.602-.754a16.062 16.062 0 017.018 0c.353.08.604.392.604.753v3.16c1.43.506 2.753 1.272 3.905 2.258l2.736-1.58a.772.772 0 01.953.144 15.912 15.912 0 013.514 6.078.773.773 0 01-.35.899l-2.739 1.58c.275 1.492.275 3.02 0 4.511zM21.141 16A5.146 5.146 0 0016 10.86 5.146 5.146 0 0010.86 16 5.146 5.146 0 0016 21.14 5.146 5.146 0 0021.14 16z"/>
</svg>
