<svg xmlns="http://www.w3.org/2000/svg" width="32" height="32" viewBox="0 0 32 32">
    <defs>
        <linearGradient id="prefix__a" x1="95.82%" x2="4.18%" y1="0%" y2="100%">
            <stop offset="0%" stop-color="#B837B3"/>
            <stop offset="100%" stop-color="#7F267B"/>
        </linearGradient>
    </defs>
    <path fill="url(#prefix__a)" d="M28.131 18.255l2.738 1.581c.313.18.458.554.351.899-.711 2.29-1.926 4.359-3.514 6.078-.245.265-.64.325-.953.144l-2.736-1.58c-1.152.986-2.475 1.752-3.905 2.257v3.16c0 .362-.25.674-.602.754-2.246.504-4.659.53-7.018 0-.353-.08-.604-.392-.604-.753v-3.16c-1.43-.506-2.753-1.272-3.905-2.258l-2.736 1.58c-.312.18-.708.12-.953-.144-1.588-1.719-2.803-3.788-3.514-6.078-.107-.345.038-.718.35-.899l2.739-1.58c-.275-1.492-.275-3.02 0-4.511l-2.738-1.581c-.313-.18-.458-.554-.351-.899.711-2.29 1.926-4.359 3.514-6.077.245-.265.64-.326.953-.145l2.736 1.58c1.152-.986 2.475-1.752 3.905-2.257v-3.16c0-.362.25-.674.602-.754 2.246-.504 4.659-.53 7.018 0 .353.08.604.392.604.753v3.16c1.43.506 2.753 1.272 3.905 2.258l2.736-1.58c.312-.18.708-.12.953.144 1.588 1.719 2.803 3.788 3.514 6.078.107.345-.038.718-.35.899l-2.739 1.58c.275 1.492.275 3.02 0 4.511zM21.141 16c0-2.835-2.306-5.14-5.141-5.14s-5.14 2.305-5.14 5.14c0 2.835 2.305 5.14 5.14 5.14 2.835 0 5.14-2.305 5.14-5.14z"/>
</svg>
