<svg xmlns="http://www.w3.org/2000/svg" width="20" height="20" viewBox="0 0 20 20">
    <defs>
        <linearGradient id="prefix__a" x1="100%" x2="0%" y1="10.718%" y2="89.282%">
            <stop offset="0%" stop-color="#B837B3"/>
            <stop offset="100%" stop-color="#7F267B"/>
        </linearGradient>
    </defs>
    <path fill="url(#prefix__a)" d="M18.307 5.565H1.693a.865.865 0 01-.86-.87V2.954c0-.48.385-.87.86-.87h16.614c.475 0 .86.39.86.87v1.74c0 .482-.385.871-.86.871zm-.286 11.898V7.597c0-.481-.385-.87-.86-.87H2.84c-.475 0-.86.389-.86.87v9.866c0 .48.385.87.86.87H17.16c.475 0 .86-.39.86-.87zm-6.159-7.255H8.138a.433.433 0 01-.43-.435v-.29c0-.24.193-.435.43-.435h3.724c.237 0 .43.195.43.435v.29c0 .24-.193.435-.43.435z"/>
</svg>
