<svg xmlns="http://www.w3.org/2000/svg" xmlns:xlink="http://www.w3.org/1999/xlink" width="360" height="280" viewBox="0 0 360 280">
    <defs>
        <path id="prefix__a" d="M0 0H360V280H0z"/>
        <path id="prefix__c" d="M0 0H753V317H0z"/>
        <linearGradient id="prefix__d" x1="5.622%" x2="96.668%" y1="41.937%" y2="48.163%">
            <stop offset="0%" stop-color="#7F267B"/>
            <stop offset="100%" stop-color="#B837B3"/>
        </linearGradient>
    </defs>
    <g fill="none" fill-rule="evenodd">
        <mask id="prefix__b" fill="#fff">
            <use xlink:href="#prefix__a"/>
        </mask>
        <use fill="#D8D8D8" stroke="#979797" xlink:href="#prefix__a"/>
        <g mask="url(#prefix__b)">
            <g transform="translate(-268)">
                <mask id="prefix__e" fill="#fff">
                    <use xlink:href="#prefix__c"/>
                </mask>
                <use fill="url(#prefix__d)" xlink:href="#prefix__c"/>
                <path fill="#7F267A" d="M368.632-60.68c9.568-.153 33.96 5.406 20.782 19.797l-189.588 206.88c.025 68.752.062 137.493.106 206.246.006 28.414-80.69 42.43-80.695 21.666-.038-71.264.03-142.533 0-213.803 0-5.728 3.299-10.855 8.526-15.243L315.168-39.643c13.029-14.21 34.69-20.727 53.464-21.037zM-7.55-54.295c-9.628-20.215 68.788-46.959 80.774-21.796 23.602 49.572 47.205 99.136 70.807 148.695 9.628 20.215-68.788 46.959-80.767 21.795C39.655 44.841 16.059-4.724-7.55-54.295zM770.232-129.73c9.568-.153 33.96 5.406 20.782 19.798L601.426 96.947c.025 68.753.062 137.493.106 206.246.006 28.414-80.69 42.43-80.695 21.666-.038-71.263.03-142.533 0-213.802 0-5.728 3.299-10.855 8.526-15.243l187.405-204.507c13.029-14.21 34.69-20.726 53.464-21.036zm-376.182 6.385c-9.628-20.215 68.788-46.959 80.774-21.795C498.426-95.57 522.029-46.004 545.63 3.555c9.628 20.215-68.788 46.958-80.767 21.795-23.609-49.559-47.205-99.124-70.814-148.695z" mask="url(#prefix__e)" opacity=".36"/>
                <path fill="#7F267A" d="M766.756 8.37c12.343-.198 43.812 6.976 26.81 25.549L548.983 300.904c.032 88.729.08 177.441.137 266.17.008 36.67-104.095 54.758-104.103 27.96-.048-91.968.04-183.944 0-275.92 0-7.392 4.256-14.009 11-19.672C536.6 211.472 617.19 123.496 697.782 35.518 714.592 17.18 742.537 8.77 766.756 8.37zm-485.419 8.359c-12.421-26.086 88.744-60.596 104.206-28.125 30.45 63.967 60.9 127.926 91.349 191.877 12.422 26.086-88.743 60.596-104.198 28.125-30.458-63.951-60.9-127.91-91.357-191.877z" mask="url(#prefix__e)" opacity=".36"/>
                <path fill="#7F267A" d="M694.07 64.865c12.344-.198 43.813 6.976 26.81 25.549L476.299 357.399c.032 88.729.08 177.441.136 266.17.008 36.67-104.094 54.758-104.102 27.96-.049-91.968.04-183.944 0-275.92 0-7.392 4.256-14.009 10.999-19.672 80.583-87.97 161.175-175.946 241.767-263.924 16.808-18.338 44.753-26.748 68.973-27.148zm-485.418 8.359c-12.422-26.086 88.743-60.596 104.206-28.125 30.45 63.967 60.899 127.926 91.348 191.877 12.422 26.086-88.743 60.596-104.197 28.125-30.458-63.951-60.9-127.91-91.357-191.877z" style="mix-blend-mode:screen" mask="url(#prefix__e)" opacity=".198"/>
                <path fill="#7F267A" d="M821.14-527.81c12.342-.198 43.811 6.976 26.81 25.549L603.366-235.276c.033 88.73.08 177.442.137 266.17.008 36.67-104.095 54.758-104.103 27.96-.048-91.968.04-183.944 0-275.92 0-7.392 4.257-14.009 11-19.672l241.766-263.924C768.976-519 796.92-527.41 821.14-527.81zm-485.42 8.359c-12.421-26.086 88.744-60.596 104.207-28.125 30.45 63.967 60.899 127.926 91.348 191.877 12.422 26.086-88.743 60.596-104.198 28.125-30.457-63.951-60.899-127.91-91.356-191.877z" style="mix-blend-mode:screen" mask="url(#prefix__e)" opacity=".087"/>
            </g>
        </g>
    </g>
</svg>
