<svg xmlns="http://www.w3.org/2000/svg" xmlns:xlink="http://www.w3.org/1999/xlink" width="360" height="712" viewBox="0 0 360 712">
    <defs>
        <path id="prefix__a" d="M0 0H360V712H0z"/>
        <path id="prefix__c" d="M1268.013 1328.34C1071.631 914.09 875.25 499.79 678.867 85.435 579.14-124.898-73.316 98.645 6.797 267.617c196.435 414.354 392.765 828.655 589.2 1242.903 99.673 210.334 752.13-13.208 672.016-182.18"/>
        <linearGradient id="prefix__d" x1="31.953%" x2="66.664%" y1="12.946%" y2="93.627%">
            <stop offset="0%" stop-color="#B64EB2"/>
            <stop offset="100%" stop-color="#80277B"/>
            <stop offset="100%" stop-color="#7F267A"/>
        </linearGradient>
    </defs>
    <g fill="none" fill-rule="evenodd">
        <mask id="prefix__b" fill="#fff">
            <use xlink:href="#prefix__a"/>
        </mask>
        <g mask="url(#prefix__b)">
            <g transform="translate(-767 -785)">
                <mask id="prefix__e" fill="#fff">
                    <use xlink:href="#prefix__c"/>
                </mask>
                <use fill="url(#prefix__d)" xlink:href="#prefix__c"/>
                <g mask="url(#prefix__e)">
                    <g fill="#7F267A">
                        <path d="M754.984 749.143c11.502-.184 40.828 6.511 24.984 23.845l-227.924 249.18c.03 82.811.075 165.607.127 248.418.008 34.224-97.004 51.106-97.012 26.096-.045-85.835.038-171.677 0-257.519 0-6.899 3.967-13.074 10.25-18.36l225.3-246.322c15.664-17.115 41.705-24.964 64.275-25.338zm-452.248 7.69c-11.576-24.348 82.697-56.56 97.106-26.252 28.375 59.707 56.75 119.407 85.125 179.099 11.575 24.348-82.697 56.56-97.099 26.252-28.382-59.692-56.75-119.392-85.132-179.099z" opacity=".36" transform="translate(328.628 415.796)"/>
                        <path d="M738.86 39.694c14.84-.238 52.672 8.402 32.232 30.773l-294.04 321.576c.04 106.872.097 213.723.165 320.594.01 44.167-125.143 65.954-125.153 33.678-.058-110.773.048-221.556 0-332.339 0-8.903 5.117-16.873 13.223-23.694L655.941 72.394c20.207-22.089 53.803-32.218 82.92-32.7zM155.287 49.762c-14.933-31.42 106.688-72.986 125.277-33.876 36.607 77.047 73.213 154.084 109.82 231.111 14.934 31.42-106.688 72.986-125.267 33.876-36.617-77.028-73.213-154.064-109.83-231.111z" opacity=".36" transform="translate(328.628 415.796)"/>
                        <path d="M1146.228 900.358c14.839-.238 52.671 8.403 32.231 30.773L884.42 1252.708c.039 106.87.097 213.722.165 320.593.01 44.168-125.144 65.954-125.154 33.678-.058-110.773.049-221.556 0-332.339 0-8.903 5.118-16.872 13.224-23.694l290.653-317.888c20.208-22.089 53.803-32.218 82.92-32.7zm-583.573 10.068c-14.934-31.42 106.687-72.986 125.277-33.875 36.606 77.046 73.213 154.083 109.82 231.11 14.933 31.42-106.688 72.986-125.268 33.876-36.616-77.027-73.213-154.064-109.83-231.11z" style="mix-blend-mode:screen" opacity=".198" transform="translate(328.628 415.796)"/>
                        <path d="M995.351 330.782c14.839-.238 52.671 8.403 32.232 30.773l-294.04 321.577c.039 106.871.097 213.723.165 320.594.01 44.167-125.144 65.954-125.154 33.677-.058-110.773.049-221.556 0-332.338 0-8.904 5.118-16.873 13.224-23.694l290.654-317.889c20.207-22.088 53.802-32.218 82.92-32.7zM411.778 340.85c-14.934-31.42 106.688-72.986 125.277-33.875 36.607 77.047 73.213 154.083 109.82 231.11 14.933 31.42-106.688 72.987-125.268 33.876-36.616-77.027-73.213-154.064-109.83-231.11z" style="mix-blend-mode:screen" opacity=".087" transform="translate(328.628 415.796)"/>
                        <path d="M584.84 642.663c14.84-.238 52.671 8.402 32.232 30.773l-294.04 321.576c.04 106.872.097 213.723.165 320.594.01 44.167-125.144 65.954-125.153 33.678-.058-110.773.048-221.556 0-332.339 0-8.903 5.117-16.873 13.223-23.694l290.654-317.888c20.207-22.089 53.803-32.218 82.92-32.7zM1.267 652.73c-14.933-31.42 106.688-72.986 125.277-33.876 36.607 77.047 73.213 154.084 109.82 231.111 14.933 31.42-106.688 72.986-125.267 33.876C74.48 806.814 37.883 729.778 1.267 652.73z" style="mix-blend-mode:screen" opacity=".198" transform="translate(328.628 415.796)"/>
                        <path d="M703.434 431.592c11.502-.184 40.828 6.511 24.984 23.845l-227.924 249.18c.03 82.811.075 165.607.128 248.418.007 34.224-97.005 51.106-97.013 26.096-.045-85.835.038-171.677 0-257.519 0-6.899 3.967-13.074 10.25-18.36l225.3-246.322c15.664-17.115 41.705-24.964 64.275-25.338zm-452.248 7.69c-11.575-24.348 82.697-56.56 97.107-26.252 28.375 59.707 56.75 119.407 85.124 179.099 11.576 24.348-82.697 56.56-97.098 26.252-28.383-59.692-56.75-119.392-85.133-179.099z" opacity=".36" transform="translate(328.628 415.796)"/>
                    </g>
                </g>
            </g>
        </g>
    </g>
</svg>
