<svg xmlns="http://www.w3.org/2000/svg" width="48" height="48" viewBox="0 0 48 48">
    <path fill="#B3B2B3" fill-rule="evenodd" d="M36.13 4c3.432 0 4.676.354 5.931 1.02 1.255.665 2.24 1.642 2.91 2.887C45.644 9.15 46 10.385 46 13.789v20.422c0 3.404-.357 4.638-1.028 5.882-.671 1.245-1.656 2.222-2.911 2.887-1.255.666-2.5 1.02-5.932 1.02H11.871c-3.433 0-4.677-.354-5.932-1.02-1.255-.665-2.24-1.642-2.91-2.887C2.356 38.85 2 37.615 2 34.211V13.789c0-3.404.357-4.638 1.028-5.882C3.7 6.662 4.684 5.685 5.94 5.02 7.194 4.354 8.439 4 11.871 4h24.258zm-1.655 3h-20.95c-2.965 0-4.04.301-5.123.867-1.084.566-1.934 1.396-2.514 2.454-.58 1.057-.888 2.107-.888 5v17.358c0 2.893.309 3.943.888 5 .58 1.058 1.43 1.888 2.514 2.454 1.084.566 2.158.867 5.123.867h20.95c2.965 0 4.04-.301 5.123-.867 1.084-.566 1.934-1.396 2.514-2.454.58-1.057.888-2.107.888-5V15.321c0-2.893-.309-3.943-.888-5-.58-1.058-1.43-1.888-2.514-2.454C38.514 7.301 37.44 7 34.475 7zm-24.322 6.09c-1.445 0-1.968.15-2.496.433-.528.283-.943.697-1.225 1.225-.282.528-.433 1.052-.433 2.496V33.63c0 2.247.234 3.062.673 3.883.44.821 1.084 1.466 1.906 1.905.82.44 1.636.673 3.882.673h23.078c2.247 0 3.062-.234 3.883-.673.821-.44 1.466-1.084 1.905-1.905.44-.821.673-1.636.673-3.883V17.244c0-1.444-.15-1.968-.433-2.496-.282-.528-.696-.942-1.224-1.225-.528-.282-1.052-.433-2.496-.433H10.153zm4.68 16.364c1.012 0 1.833.814 1.833 1.818s-.82 1.818-1.833 1.818S13 32.276 13 31.272s.82-1.818 1.833-1.818zm9.166 0c1.013 0 1.833.814 1.833 1.818S25.012 33.09 24 33.09c-1.012 0-1.833-.814-1.833-1.818s.82-1.818 1.833-1.818zm9.167 0c1.012 0 1.833.814 1.833 1.818s-.821 1.818-1.833 1.818c-1.013 0-1.834-.814-1.834-1.818s.821-1.818 1.834-1.818zm-18.333-10.91c2.025 0 3.666 1.629 3.666 3.637 0 2.009-1.641 3.637-3.666 3.637s-3.667-1.628-3.667-3.637c0-2.008 1.642-3.636 3.667-3.636zm9.166 1.82c1.013 0 1.833.813 1.833 1.817S25.012 24 24 24c-1.012 0-1.833-.814-1.833-1.818s.82-1.818 1.833-1.818zm9.167 0c1.012 0 1.833.813 1.833 1.817S34.178 24 33.166 24c-1.013 0-1.834-.814-1.834-1.818s.821-1.818 1.834-1.818z" opacity=".299"/>
</svg>
