<svg xmlns="http://www.w3.org/2000/svg" width="32" height="32" viewBox="0 0 32 32">
    <path fill="#CCC" fill-rule="evenodd" d="M27.308 10.5A.69.69 0 0028 9.812V7.521a.69.69 0 00-.692-.688h-1.154v-2.75a2.76 2.76 0 00-2.77-2.75H6.77A2.76 2.76 0 004 4.083v23.834a2.76 2.76 0 002.77 2.75h16.615a2.76 2.76 0 002.769-2.75v-2.75h1.154a.69.69 0 00.692-.688v-2.291a.69.69 0 00-.692-.688h-1.154v-3.667h1.154a.69.69 0 00.692-.687v-2.292a.69.69 0 00-.692-.687h-1.154V10.5h1.154zM15.077 6.833c3.059 0 5.538 2.463 5.538 5.5 0 3.038-2.48 5.5-5.538 5.5-3.059 0-5.539-2.462-5.539-5.5 0-3.037 2.48-5.5 5.539-5.5zm7.385 17.417a2.76 2.76 0 01-2.77 2.75h-9.23a2.76 2.76 0 01-2.77-2.75v-2.79c0-1.204.787-2.267 1.944-2.626l1.324-.41a7.368 7.368 0 004.117 1.243c1.489 0 2.91-.435 4.117-1.244l1.324.411a2.752 2.752 0 011.944 2.625v2.791z"/>
</svg>
