<svg xmlns="http://www.w3.org/2000/svg" width="32" height="32" viewBox="0 0 32 32">
    <defs>
        <linearGradient id="prefix__a" x1="83.471%" x2="16.529%" y1="0%" y2="100%">
            <stop offset="0%" stop-color="#B837B3"/>
            <stop offset="100%" stop-color="#7F267B"/>
        </linearGradient>
    </defs>
    <path fill="url(#prefix__a)" d="M27.308 10.5c.382 0 .692-.308.692-.688V7.521c0-.38-.31-.688-.692-.688h-1.154v-2.75c0-1.518-1.24-2.75-2.77-2.75H6.77C5.24 1.333 4 2.565 4 4.083v23.834c0 1.518 1.24 2.75 2.77 2.75h16.615c1.529 0 2.769-1.232 2.769-2.75v-2.75h1.154c.382 0 .692-.308.692-.688v-2.291c0-.38-.31-.688-.692-.688h-1.154v-3.667h1.154c.382 0 .692-.307.692-.687v-2.292c0-.38-.31-.687-.692-.687h-1.154V10.5h1.154zM15.077 6.833c3.059 0 5.538 2.463 5.538 5.5 0 3.038-2.48 5.5-5.538 5.5-3.059 0-5.539-2.462-5.539-5.5 0-3.037 2.48-5.5 5.539-5.5zm7.385 17.417c0 1.519-1.24 2.75-2.77 2.75h-9.23c-1.53 0-2.77-1.231-2.77-2.75v-2.79c0-1.204.787-2.267 1.944-2.626l1.324-.41c1.207.808 2.628 1.243 4.117 1.243 1.489 0 2.91-.435 4.117-1.244l1.324.411c1.156.36 1.944 1.422 1.944 2.625v2.791z"/>
</svg>
