<svg xmlns="http://www.w3.org/2000/svg" width="24" height="24" viewBox="0 0 24 24">
    <path fill="#CCC" fill-rule="evenodd" d="M19.571 19.844h-.714V3.367A.862.862 0 0018 2.5H6a.862.862 0 00-.857.867v16.477h-.714a.431.431 0 00-.429.433V21h16v-.723a.431.431 0 00-.429-.433zm-11-14.598c0-.24.192-.434.429-.434h1.429c.236 0 .428.195.428.434v1.445c0 .24-.192.434-.428.434H9a.431.431 0 01-.429-.434V5.246zm0 3.469c0-.24.192-.434.429-.434h1.429c.236 0 .428.194.428.434v1.445c0 .24-.192.434-.428.434H9a.431.431 0 01-.429-.434V8.715zm1.858 5.348H9a.431.431 0 01-.429-.434v-1.445c0-.24.192-.434.429-.434h1.429c.236 0 .428.194.428.434v1.445c0 .24-.192.434-.428.434zm2.714 5.78h-2.286V16.81c0-.24.192-.434.429-.434h1.428c.237 0 .429.194.429.434v3.035zm2.286-6.214c0 .24-.192.434-.429.434h-1.429a.431.431 0 01-.428-.434v-1.445c0-.24.192-.434.428-.434H15c.237 0 .429.194.429.434v1.445zm0-3.469c0 .24-.192.434-.429.434h-1.429a.431.431 0 01-.428-.434V8.715c0-.24.192-.434.428-.434H15c.237 0 .429.194.429.434v1.445zm0-3.469c0 .24-.192.434-.429.434h-1.429a.431.431 0 01-.428-.434V5.246c0-.24.192-.434.428-.434H15c.237 0 .429.195.429.434v1.445z"/>
</svg>
