<svg xmlns="http://www.w3.org/2000/svg" width="32" height="32" viewBox="0 0 32 32">
    <defs>
        <linearGradient id="prefix__a" x1="98.425%" x2="1.575%" y1="0%" y2="100%">
            <stop offset="0%" stop-color="#B837B3"/>
            <stop offset="100%" stop-color="#7F267B"/>
        </linearGradient>
    </defs>
    <path fill="url(#prefix__a)" d="M24.364 4.476c3.66 2.614 6.041 6.889 6.041 11.727 0 7.946-6.436 14.388-14.376 14.406C8.1 30.626 1.606 24.16 1.595 16.227 1.589 11.388 3.97 7.1 7.624 4.482a1.398 1.398 0 012.033.447l.918 1.632c.342.61.18 1.382-.384 1.8-2.41 1.79-3.95 4.624-3.95 7.836-.005 5.362 4.328 9.765 9.759 9.765 5.32 0 9.793-4.31 9.758-9.823a9.762 9.762 0 00-3.955-7.783 1.386 1.386 0 01-.378-1.795l.918-1.632a1.392 1.392 0 012.021-.453zm-6.04 12.192V2.728a1.39 1.39 0 00-1.395-1.395h-1.858a1.39 1.39 0 00-1.394 1.394v13.941a1.39 1.39 0 001.394 1.394h1.858a1.39 1.39 0 001.394-1.394z"/>
</svg>
