<svg xmlns="http://www.w3.org/2000/svg" width="32" height="32" viewBox="0 0 32 32">
    <path fill="#CCC" fill-rule="evenodd" d="M6.217 4h4.569c.81 0 1.16.035 1.524.119.363.084.684.219 1 .418.316.2.587.425 1.16 1.003l.615.62c.573.578.845.804 1.16 1.003.317.2.638.334 1 .418.364.084.714.119 1.525.119h7.196c1.635 0 2.227.172 2.825.494a3.347 3.347 0 011.386 1.399c.32.603.49 1.2.49 2.85v11.164c0 1.76-.182 2.397-.523 3.04a3.57 3.57 0 01-1.478 1.493c-.638.343-1.27.527-3.013.527H6.347c-1.743 0-2.375-.184-3.013-.527a3.57 3.57 0 01-1.478-1.492c-.341-.644-.523-1.281-.523-3.04V8.927c0-1.602.182-2.266.523-2.909a3.57 3.57 0 011.478-1.492C3.972 4.183 4.63 4 6.217 4zm-.979 6.783c-.218 0-.354.035-.474.1a.67.67 0 00-.277.279c-.064.12-.098.258-.098.478v.136c0 .22.034.358.098.479a.67.67 0 00.277.28c.12.064.256.098.474.098h21.524c.218 0 .354-.034.474-.099a.67.67 0 00.277-.28c.064-.12.098-.258.098-.478v-.136c0-.22-.034-.358-.098-.478a.67.67 0 00-.277-.28c-.12-.064-.256-.099-.474-.099H5.238z"/>
</svg>
