<svg xmlns="http://www.w3.org/2000/svg" width="20" height="20" viewBox="0 0 20 20">
    <defs>
        <linearGradient id="prefix__a" x1="97.531%" x2="2.469%" y1="0%" y2="100%">
            <stop offset="0%" stop-color="#B837B3"/>
            <stop offset="100%" stop-color="#7F267B"/>
        </linearGradient>
    </defs>
    <path fill="url(#prefix__a)" d="M11.56 4.997l3.524 3.614c.148.152.148.4 0 .553l-8.531 8.752-3.625.412c-.484.056-.894-.364-.84-.861l.403-3.719 8.53-8.751a.375.375 0 01.54 0zm6.328-.918l-1.906-1.956a1.5 1.5 0 00-2.156 0l-1.383 1.419a.399.399 0 000 .553l3.523 3.614c.149.153.39.153.54 0l1.382-1.418a1.596 1.596 0 000-2.212z"/>
</svg>
