<svg xmlns="http://www.w3.org/2000/svg" width="121" height="120" viewBox="0 0 121 120">
    <path fill="#E02020" d="M60 0c16.027 0 31.094 6.241 42.428 17.574a60.003 60.003 0 0117.396 37.813c1.082 14.103-2.846 28.161-11.058 39.585a2.344 2.344 0 01-3.806-2.736c15.873-22.08 13.414-52.086-5.848-71.348C88.665 10.44 74.775 4.688 60 4.688c-14.775 0-28.664 5.753-39.111 16.2-21.567 21.567-21.567 56.657 0 78.224 19.262 19.262 49.267 21.721 71.347 5.848a2.343 2.343 0 112.736 3.806C84.792 116.084 72.518 120 59.985 120a59.996 59.996 0 01-42.412-17.574C6.242 91.094 0 76.027 0 60c0-16.026 6.241-31.094 17.574-42.426C28.906 6.24 43.974 0 60 0zm40.77 98.427c.617 0 1.22.25 1.658.686.435.436.686 1.038.686 1.657 0 .616-.25 1.22-.686 1.656a2.361 2.361 0 01-1.658.688c-.617 0-1.22-.25-1.657-.688a2.36 2.36 0 01-.686-1.656c0-.619.25-1.221.686-1.657a2.358 2.358 0 011.657-.686zM77.9 26.499c.621 0 1.217.247 1.657.687l13.258 13.258a2.343 2.343 0 010 3.315L76.573 60l16.241 16.241c.916.916.916 2.4 0 3.316L79.557 92.814a2.336 2.336 0 01-1.657.687c-.601 0-1.2-.229-1.658-.687L60 76.573 43.76 92.814a2.343 2.343 0 01-3.315 0L27.186 79.557a2.347 2.347 0 010-3.316L43.427 60l-16.24-16.241a2.343 2.343 0 010-3.315l13.257-13.258a2.344 2.344 0 013.315 0L60 43.427l16.242-16.241a2.344 2.344 0 011.657-.687zm0 5.659L61.657 48.399a2.344 2.344 0 01-3.314 0L42.102 32.158 32.158 42.1l16.241 16.242a2.344 2.344 0 010 3.314L32.158 77.9l9.944 9.943 16.241-16.24A2.336 2.336 0 0160 70.915c.6 0 1.2.229 1.657.687L77.9 87.843l9.943-9.944-16.24-16.241a2.344 2.344 0 010-3.315L87.842 42.1 77.9 32.158z"/>
</svg>
