<svg xmlns="http://www.w3.org/2000/svg" width="24" height="24" viewBox="0 0 24 24">
    <defs>
        <linearGradient id="prefix__a" x1="100%" x2="0%" y1="18.363%" y2="81.637%">
            <stop offset="0%" stop-color="#B837B3"/>
            <stop offset="100%" stop-color="#7F267B"/>
        </linearGradient>
    </defs>
    <path fill="url(#prefix__a)" d="M20.8 12A2.2 2.2 0 0123 9.812V5.439a2.2 2.2 0 00-2.2-2.188H3.2a2.19 2.19 0 00-2.189 2.188v4.375A2.19 2.19 0 013.2 12 2.193 2.193 0 011 14.188v4.374a2.2 2.2 0 002.2 2.188h17.6a2.2 2.2 0 002.2-2.188v-4.375A2.2 2.2 0 0120.8 12zm-4.862 5.25L12 14.734 8.062 17.25l1.188-4.506-3.619-2.942 4.664-.274L12 5.218l1.694 4.321 4.664.274-3.619 2.942 1.199 4.495z"/>
</svg>
