<svg xmlns="http://www.w3.org/2000/svg" width="32" height="32" viewBox="0 0 32 32">
    <defs>
        <linearGradient id="prefix__a" x1="100%" x2="0%" y1="14.644%" y2="85.356%">
            <stop offset="0%" stop-color="#B837B3"/>
            <stop offset="100%" stop-color="#7F267B"/>
        </linearGradient>
    </defs>
    <path fill="url(#prefix__a)" d="M6.217 4h4.569c.81 0 1.16.035 1.524.119.363.084.684.219 1 .418.316.2.587.425 1.16 1.003l.615.62c.573.578.845.804 1.16 1.003.317.2.638.334 1 .418.364.084.714.119 1.525.119h7.196c1.635 0 2.227.172 2.825.494.597.323 1.066.796 1.386 1.399.32.603.49 1.2.49 2.85v11.164c0 1.76-.182 2.397-.523 3.04-.34.644-.84 1.149-1.478 1.493-.638.343-1.27.527-3.013.527H6.347c-1.743 0-2.375-.184-3.013-.527-.637-.344-1.137-.85-1.478-1.492-.341-.644-.523-1.281-.523-3.04V8.927c0-1.602.182-2.266.523-2.909.34-.643.84-1.148 1.478-1.492C3.972 4.183 4.63 4 6.217 4zm-.979 6.783c-.218 0-.354.035-.474.1-.12.064-.213.158-.277.279-.064.12-.098.258-.098.478v.136c0 .22.034.358.098.479.064.12.158.215.277.28.12.064.256.098.474.098h21.524c.218 0 .354-.034.474-.099.12-.064.213-.159.277-.28.064-.12.098-.258.098-.478v-.136c0-.22-.034-.358-.098-.478s-.158-.215-.277-.28c-.12-.064-.256-.099-.474-.099H5.238z"/>
</svg>
