<svg xmlns="http://www.w3.org/2000/svg" width="24" height="24" viewBox="0 0 24 24">
    <path fill="#7F267B" fill-rule="evenodd" d="M3.72 12.916H1.99a.99.99 0 01-.7-1.69l9.863-9.843a1.192 1.192 0 011.685.002l9.883 9.904a.953.953 0 01-.674 1.627h-1.828v8.202c0 .654-.068.891-.196 1.13a1.333 1.333 0 01-.554.555c-.239.127-.476.195-1.13.195H16.6c-.653 0-.89-.068-1.13-.195a1.333 1.333 0 01-.554-.555c-.128-.239-.196-.476-.196-1.13V16.63c0-.654-.068-.89-.195-1.13a1.333 1.333 0 00-.555-.554c-.239-.128-.476-.196-1.13-.196H11.1c-.653 0-.89.068-1.129.196a1.333 1.333 0 00-.554.554c-.128.24-.196.476-.196 1.13v4.49c0 .653-.068.89-.196 1.13a1.333 1.333 0 01-.554.554c-.24.127-.477.195-1.13.195H5.6c-.654 0-.891-.068-1.13-.195a1.333 1.333 0 01-.555-.555c-.128-.239-.196-.476-.196-1.13v-8.202zM18.374 1h.484c.433 0 .62.051.8.147a1 1 0 01.415.416c.096.179.147.366.147.8v4.503l-3.208-3.208V2.362c0-.433.051-.62.147-.8a1 1 0 01.416-.415c.179-.096.366-.147.8-.147z"/>
</svg>
