<svg xmlns="http://www.w3.org/2000/svg" xmlns:xlink="http://www.w3.org/1999/xlink" width="48" height="48" viewBox="0 0 48 48">
    <defs>
        <path id="prefix__a" d="M36 21.5c1.205 0 2.182.977 2.182 2.182v7.636h7.636a2.182 2.182 0 010 4.364h-7.636v7.636a2.182 2.182 0 01-4.364 0v-7.636h-7.636a2.182 2.182 0 010-4.364h7.636v-7.636c0-1.205.977-2.182 2.182-2.182zM39.6 3c2.349 0 4.283 1.855 4.395 4.164l.005.211v8.75a4.416 4.416 0 00-4.09 2.768A6.155 6.155 0 0036 17.5l-.227.004a6.182 6.182 0 00-5.955 6.178v3.636h-.924l-1.416-5.309 7.238-5.884-9.328-.547L22 6.938l-3.41 8.618-9.328.547 7.238 5.884L14.124 31 22 25.969l2.483 1.586A6.185 6.185 0 0020 33.5l.004.227A6.164 6.164 0 0021.944 38L4.4 38C2.051 38 .117 36.145.005 33.836L0 33.625v-8.75c2.442 0 4.4-1.969 4.4-4.375a4.382 4.382 0 00-4.166-4.37l-.212-.005v-8.75a4.382 4.382 0 014.166-4.37L4.4 3h35.2z"/>
    </defs>
    <g fill="none" fill-rule="evenodd">
        <use fill="#000" fill-rule="nonzero" xlink:href="#prefix__a"/>
    </g>
</svg>
