<svg xmlns="http://www.w3.org/2000/svg" width="40" height="40" viewBox="0 0 40 40">
    <defs>
        <linearGradient id="prefix__a" x1="100%" x2="0%" y1="0%" y2="100%">
            <stop offset="0%" stop-color="#B837B3"/>
            <stop offset="100%" stop-color="#7F267B"/>
        </linearGradient>
    </defs>
    <path fill="url(#prefix__a)" d="M35.401 1.667H4.8c-1.671 0-3.132 1.203-3.132 2.855v30.669c0 1.662 1.461 3.142 3.132 3.142h30.593c1.68 0 2.941-1.49 2.941-3.142V4.522c.01-1.652-1.26-2.855-2.932-2.855zM13.032 32.23H7.78V15.898h5.253V32.23zm-2.445-18.815h-.038c-1.68 0-2.77-1.252-2.77-2.818 0-1.595 1.118-2.818 2.837-2.818 1.72 0 2.77 1.213 2.808 2.818 0 1.566-1.089 2.818-2.837 2.818zM32.23 32.23h-5.253V23.3c0-2.14-.764-3.6-2.665-3.6-1.451 0-2.311.983-2.693 1.938-.143.344-.182.812-.182 1.29v9.302h-5.253V15.898h5.253v2.273c.764-1.089 1.958-2.655 4.738-2.655 3.448 0 6.055 2.273 6.055 7.173v9.541z"/>
</svg>
