<svg xmlns="http://www.w3.org/2000/svg" width="20" height="20" viewBox="0 0 20 20">
    <path fill="#737072" fill-rule="evenodd" d="M10 1.25c2.444 0 4.427 1.956 4.427 4.365v1.746h.886c.973 0 1.77.786 1.77 1.746v8.73c0 .96-.797 1.746-1.77 1.746H4.687c-.973 0-1.77-.785-1.77-1.746v-8.73c0-.96.797-1.746 1.77-1.746h8.058V5.615c0-1.493-1.23-2.706-2.745-2.706-1.514 0-2.745 1.213-2.745 2.706H5.573c0-2.41 1.983-4.365 4.427-4.365zm0 10.476c-.974 0-1.77.786-1.77 1.746s.796 1.746 1.77 1.746 1.77-.785 1.77-1.746c0-.96-.796-1.746-1.77-1.746z"/>
</svg>
