<svg xmlns="http://www.w3.org/2000/svg" width="20" height="20" viewBox="0 0 20 20">
    <defs>
        <linearGradient id="prefix__a" x1="79.855%" x2="20.145%" y1="0%" y2="100%">
            <stop offset="0%" stop-color="#B837B3"/>
            <stop offset="100%" stop-color="#7F267B"/>
        </linearGradient>
    </defs>
    <path fill="url(#prefix__a)" d="M15.313 6.944h-.886V5.198c0-2.41-1.983-4.365-4.427-4.365-2.444 0-4.427 1.956-4.427 4.365v1.746h-.886c-.973 0-1.77.786-1.77 1.746v8.73c0 .961.797 1.747 1.77 1.747h10.625c.974 0 1.771-.786 1.771-1.746V8.69c0-.96-.797-1.747-1.77-1.747zM10 14.802c-.974 0-1.77-.786-1.77-1.746S9.025 11.31 10 11.31s1.77.785 1.77 1.746c0 .96-.796 1.746-1.77 1.746zm2.745-7.858h-5.49V5.198c0-1.492 1.23-2.706 2.745-2.706 1.514 0 2.745 1.214 2.745 2.706v1.746z"/>
</svg>
