<svg xmlns="http://www.w3.org/2000/svg" width="24" height="24" viewBox="0 0 24 24">
    <path fill="#7F267B" fill-rule="evenodd" d="M12 1C5.92 1 1 5.92 1 12s4.92 11 11 11a11.03 11.03 0 006.006-1.784 1.066 1.066 0 00.246-1.569l-.451-.551a1.062 1.062 0 00-1.392-.228A8.183 8.183 0 0112 20.161c-4.5 0-8.161-3.66-8.161-8.161 0-4.5 3.66-8.161 8.161-8.161 4.442 0 8.161 2.555 8.161 7.096 0 1.72-.935 3.537-2.58 3.713-.77-.02-.75-.57-.598-1.332l1.04-5.372a1.064 1.064 0 00-1.045-1.267h-1.995a.6.6 0 00-.596.532v.004c-.653-.794-1.795-.965-2.66-.965-3.309 0-6.114 2.76-6.114 6.718 0 2.896 1.631 4.695 4.258 4.695 1.197 0 2.545-.693 3.326-1.7.423 1.513 1.802 1.513 3.137 1.513 4.83 0 6.666-3.177 6.666-6.539C23 4.888 18.122 1 12 1zm-.962 13.503c-.986 0-1.6-.693-1.6-1.808 0-1.996 1.366-3.226 2.601-3.226.989 0 1.58.676 1.58 1.808 0 1.999-1.503 3.226-2.58 3.226z"/>
</svg>
