<svg xmlns="http://www.w3.org/2000/svg" width="16" height="16" viewBox="0 0 16 16">
    <defs>
        <linearGradient id="a" x1="100%" x2="0%" y1="0%" y2="100%">
            <stop offset="0%" stop-color="#B837B3"/>
            <stop offset="100%" stop-color="#7F267B"/>
        </linearGradient>
    </defs>
    <path fill="url(#a)" fill-rule="nonzero" d="M15.333 5.708a5.042 5.042 0 0 1-5.982 4.954l-.688.774a.687.687 0 0 1-.513.23H7.083v1.146c0 .38-.307.688-.687.688H5.25v1.146c0 .38-.308.687-.688.687H1.354a.687.687 0 0 1-.687-.687V12.41c0-.183.072-.357.201-.486l4.635-4.635A5.042 5.042 0 0 1 10.292.667a5.031 5.031 0 0 1 5.041 5.041zm-5.041-1.375a1.375 1.375 0 1 0 2.75 0 1.375 1.375 0 0 0-2.75 0z"/>
</svg>
