<svg xmlns="http://www.w3.org/2000/svg" width="24" height="24" viewBox="0 0 24 24">
    <defs>
        <linearGradient id="prefix__a" x1="100%" x2="0%" y1="1.036%" y2="98.964%">
            <stop offset="0%" stop-color="#B837B3"/>
            <stop offset="100%" stop-color="#7F267B"/>
        </linearGradient>
    </defs>
    <path fill="url(#prefix__a)" d="M18 11.75c.602 0 1.09.488 1.09 1.09v3.82h3.82a1.09 1.09 0 110 2.18h-3.82v3.82a1.09 1.09 0 11-2.18 0v-3.82h-3.82a1.09 1.09 0 110-2.18h3.82v-3.82c0-.602.488-1.09 1.09-1.09zm-.179-8.575c.932 0 1.27.097 1.61.28.34.181.608.449.79.79.182.34.279.679.279 1.611v5.168a3.089 3.089 0 00-2.15-1.254c.04-.134.06-.311.06-.615V6.607c0-.466-.048-.635-.14-.806a.95.95 0 00-.394-.395c-.17-.091-.34-.14-.805-.14H9.302c-.466 0-.635.049-.805.14a.95.95 0 00-.395.395c-.09.17-.14.34-.14.806v2.548c0 .466.05.635.14.806a.95.95 0 00.395.395c.17.091.34.14.805.14l6.686-.001c-.6.515-1 1.256-1.069 2.092H8.485a.523.523 0 000 1.046h6.424v1.026h-1.818c-.12 0-.239.007-.355.02H8.485a.523.523 0 000 1.046h2.271a3.087 3.087 0 00-.597 1.045H8.485a.523.523 0 000 1.047l1.516-.001.001.047a3.091 3.091 0 003.089 2.978h1.818v1.158L8.552 22c-.932 0-1.27-.097-1.61-.28a1.9 1.9 0 01-.79-.79c-.182-.34-.279-.679-.279-1.611V5.856c0-.932.097-1.27.28-1.611a1.9 1.9 0 01.789-.79c.34-.183.678-.28 1.61-.28h9.27zM12.678.055c.376.089.703.278.967.56.264.282.445.583.686 1.484l.008.03H7.507c-.931 0-1.27.097-1.61.28a1.9 1.9 0 00-.79.79c-.182.34-.279.679-.279 1.611V19.32c0 .861.083 1.215.24 1.533a1.897 1.897 0 01-.698-.476c-.264-.282-.445-.583-.687-1.484L.203 5.89c-.241-.901-.235-1.253-.147-1.63.087-.376.276-.703.558-.968.282-.264.583-.445 1.483-.686L11.05.203c.9-.241 1.25-.235 1.627-.147z"/>
</svg>
