<svg xmlns="http://www.w3.org/2000/svg" width="48" height="48" viewBox="0 0 48 48">
    <path fill="#B3B2B3" fill-rule="evenodd" d="M32.679 6.258H19.014c-1.863 0-2.539.194-3.22.558-.68.365-1.215.9-1.58 1.582-.364.682-.557 1.358-.557 3.223v29.016c0 1.723.165 2.431.478 3.067-.529-.207-.998-.526-1.396-.951-.528-.564-.89-1.167-1.372-2.968L4.405 13.777c-.482-1.801-.47-2.504-.294-3.257.176-.753.554-1.409 1.117-1.937.564-.529 1.166-.891 2.966-1.374L26.1 2.406c1.8-.483 2.502-.47 3.254-.295.752.176 1.407.555 1.935 1.119s.89 1.167 1.373 2.968l.016.06zM21.103 8.349h18.54c1.862 0 2.538.195 3.22.56.68.364 1.215.899 1.579 1.58.364.682.558 1.358.558 3.223v26.925c0 1.865-.194 2.541-.558 3.223-.364.682-.899 1.217-1.58 1.581-.681.365-1.357.559-3.22.559H21.104c-1.862 0-2.538-.194-3.219-.559-.681-.364-1.216-.9-1.58-1.581-.364-.682-.558-1.358-.558-3.223V13.712c0-1.865.194-2.54.558-3.222.364-.682.899-1.217 1.58-1.582.681-.364 1.357-.559 3.22-.559zm1.5 4.184c-.93 0-1.268.097-1.609.28-.34.181-.608.449-.79.79-.182.34-.279.679-.279 1.611v5.096c0 .932.097 1.27.28 1.611.181.341.449.609.79.79.34.183.677.28 1.609.28h15.538c.932 0 1.27-.097 1.61-.28.34-.181.608-.449.79-.79.182-.34.279-.679.279-1.611v-5.096c0-.932-.097-1.27-.28-1.611-.181-.341-.449-.609-.79-.79-.34-.183-.677-.28-1.609-.28H22.604zM20.97 27.175c-.577 0-1.045.468-1.045 1.046 0 .577.468 1.045 1.045 1.045h18.806c.577 0 1.045-.468 1.045-1.045 0-.578-.468-1.046-1.045-1.046H20.97zm0 4.183c-.577 0-1.045.468-1.045 1.046 0 .578.468 1.046 1.045 1.046h18.806c.577 0 1.045-.468 1.045-1.046 0-.578-.468-1.046-1.045-1.046H20.97zm0 4.183c-.577 0-1.045.469-1.045 1.046 0 .578.468 1.046 1.045 1.046h14.627c.577 0 1.045-.468 1.045-1.046 0-.577-.468-1.046-1.045-1.046H20.97z" opacity=".299"/>
</svg>
