<svg xmlns="http://www.w3.org/2000/svg" width="36" height="48" viewBox="0 0 36 48">
    <g fill="none" fill-rule="evenodd">
        <path fill="#EFEFEF" d="M9.4 0h27.67v48H.93V6.8c2.313-2.555 3.813-4.165 4.5-4.828C6.461.976 7.141 0 9.4 0z"/>
        <path stroke="#737072" stroke-width=".565" d="M36.718.282H9.438c-1.896 0-2.612.743-3.755 1.889-.679.658-2.144 2.236-4.4 4.737v40.81h35.435V.282z"/>
        <path fill="#000" fill-rule="nonzero" d="M15.808 16h3.725v3.212c0 .923.096 1.258.277 1.595.18.338.445.603.783.783.337.18.672.277 1.595.277H25.4v7.866c0 .985-.103 1.342-.295 1.702-.192.36-.475.642-.835.835-.36.192-.717.295-1.701.295h-6.761c-.985 0-1.342-.103-1.702-.295-.36-.193-.642-.475-.835-.835-.192-.36-.295-.717-.295-1.702V18.831c0-.984.103-1.341.295-1.701.193-.36.475-.643.835-.835.36-.192.717-.295 1.702-.295zm4.76 0l4.832 4.831h-3.239c-.554 0-.754-.057-.957-.166-.202-.108-.361-.267-.47-.47-.108-.202-.165-.402-.165-.956V16z" opacity=".501"/>
    </g>
</svg>
