<?xml version="1.0" encoding="UTF-8" standalone="no"?>
<svg
   xmlns:dc="http://purl.org/dc/elements/1.1/"
   xmlns:cc="http://creativecommons.org/ns#"
   xmlns:rdf="http://www.w3.org/1999/02/22-rdf-syntax-ns#"
   xmlns:svg="http://www.w3.org/2000/svg"
   xmlns="http://www.w3.org/2000/svg"
   xmlns:xlink="http://www.w3.org/1999/xlink"
   xmlns:sodipodi="http://sodipodi.sourceforge.net/DTD/sodipodi-0.dtd"
   xmlns:inkscape="http://www.inkscape.org/namespaces/inkscape"
   width="88"
   height="88"
   viewBox="0 0 88 88"
   version="1.1"
   id="svg4703"
   sodipodi:docname="illu-card-profil-icon.svg"
   inkscape:version="0.92.4 (f8dce91, 2019-08-02)">
  <metadata
     id="metadata4707">
    <rdf:RDF>
      <cc:Work
         rdf:about="">
        <dc:format>image/svg+xml</dc:format>
        <dc:type
           rdf:resource="http://purl.org/dc/dcmitype/StillImage" />
      </cc:Work>
    </rdf:RDF>
  </metadata>
  <sodipodi:namedview
     pagecolor="#ffffff"
     bordercolor="#666666"
     borderopacity="1"
     objecttolerance="10"
     gridtolerance="10"
     guidetolerance="10"
     inkscape:pageopacity="0"
     inkscape:pageshadow="2"
     inkscape:window-width="1920"
     inkscape:window-height="1016"
     id="namedview4705"
     showgrid="false"
     inkscape:zoom="2.6818182"
     inkscape:cx="43.627119"
     inkscape:cy="44"
     inkscape:window-x="0"
     inkscape:window-y="27"
     inkscape:window-maximized="1"
     inkscape:current-layer="g4701" />
  <defs
     id="defs4693">
    <linearGradient
       id="prefix__a"
       x1="100%"
       x2="0%"
       y1="0%"
       y2="100%">
      <stop
         offset="0%"
         stop-color="#B837B3"
         id="stop4683" />
      <stop
         offset="100%"
         stop-color="#7F267B"
         id="stop4685" />
    </linearGradient>
    <linearGradient
       id="prefix__b"
       x1="1"
       x2="0"
       y1="0.5"
       y2="0.5"
       xlink:href="#prefix__a">
      <stop
         offset="0%"
         stop-color="#AD45A8"
         id="stop4688" />
      <stop
         offset="100%"
         stop-color="#D67BD3"
         id="stop4690" />
    </linearGradient>
  </defs>
  <g
     fill="none"
     id="g4701">
    <circle
       cx="44"
       cy="44"
       r="44"
       fill="#FFF"
       id="circle4695" />
    <path
       fill="url(#prefix__a)"
       d="M4 48C4 23.7 23.7 4 48 4s44 19.7 44 44-19.7 44-44 44S4 72.3 4 48zm12.855 22.331C23.81 80.015 35.168 86.323 48 86.323s24.19-6.308 31.145-15.992a11.71 11.71 0 00-8.789-10l-5.744-1.436C59.987 62.866 54.16 65.032 48 65.032c-6.16 0-11.987-2.166-16.612-6.137l-5.744 1.436a11.71 11.71 0 00-8.79 10zm11.274-30.847c0 10.974 8.897 19.87 19.871 19.87 10.974 0 19.871-8.896 19.871-19.87 0-10.975-8.897-19.871-19.871-19.871-10.974 0-19.871 8.896-19.871 19.87z"
       transform="translate(-4 -4)"
       id="path4697"
       style="fill:#b3b2b3;fill-opacity:0.96862745" />
    <circle
       cx="44"
       cy="44"
       r="43.5"
       stroke="url(#prefix__b)"
       id="circle4699"
       style="stroke:#b3b2b3;stroke-opacity:0.96862745" />
  </g>
</svg>
