<svg xmlns="http://www.w3.org/2000/svg" width="24" height="24" viewBox="0 0 24 24">
    <path fill="#CCC" fill-rule="evenodd" d="M16.34 3.129H9.506c-.931 0-1.27.097-1.61.28a1.9 1.9 0 00-.79.79c-.182.34-.279.679-.279 1.611V20.32c0 .861.083 1.215.24 1.533a1.897 1.897 0 01-.698-.476c-.264-.282-.445-.583-.687-1.484L2.203 6.89c-.241-.901-.235-1.253-.147-1.63.087-.376.276-.703.558-.968.282-.264.583-.445 1.483-.686l8.954-2.402c.9-.241 1.25-.235 1.627-.147.376.088.703.277.967.559.264.282.445.583.686 1.484l.008.03zm-5.788 1.046h9.27c.93 0 1.269.097 1.609.28.34.181.608.449.79.79.182.34.279.679.279 1.611V20.32c0 .932-.097 1.27-.28 1.61a1.9 1.9 0 01-.789.792c-.34.182-.678.279-1.61.279h-9.27c-.93 0-1.268-.097-1.609-.28a1.9 1.9 0 01-.79-.79c-.182-.34-.279-.679-.279-1.611V6.856c0-.932.097-1.27.28-1.611a1.9 1.9 0 01.789-.79c.34-.183.678-.28 1.61-.28zm.75 2.091c-.466 0-.635.049-.805.14a.95.95 0 00-.395.395c-.09.17-.14.34-.14.806v2.548c0 .466.05.635.14.806a.95.95 0 00.395.395c.17.091.34.14.805.14h7.77c.465 0 .634-.049.804-.14a.95.95 0 00.395-.395c.09-.17.14-.34.14-.806V7.607c0-.466-.05-.635-.14-.806a.95.95 0 00-.395-.395c-.17-.091-.34-.14-.805-.14h-7.769zm-.817 7.321a.523.523 0 000 1.046h9.403a.523.523 0 000-1.046h-9.403zm0 2.092a.523.523 0 000 1.046h9.403a.523.523 0 000-1.046h-9.403zm0 2.092a.523.523 0 000 1.046h7.313a.523.523 0 000-1.046h-7.313z"/>
</svg>
