<svg xmlns="http://www.w3.org/2000/svg" width="20" height="20" viewBox="0 0 20 20">
    <defs>
        <linearGradient id="prefix__a" x1="100%" x2="0%" y1="29.752%" y2="70.248%">
            <stop offset="0%" stop-color="#B837B3"/>
            <stop offset="100%" stop-color="#7F267B"/>
        </linearGradient>
    </defs>
    <path fill="url(#prefix__a)" d="M18.955 9.227C17.16 6.194 13.813 4.167 10 4.167c-3.815 0-7.161 2.028-8.955 5.06a1.517 1.517 0 000 1.546c1.795 3.033 5.142 5.06 8.955 5.06 3.815 0 7.161-2.028 8.955-5.06a1.516 1.516 0 000-1.546zM10 14.312A4.318 4.318 0 015.671 10 4.318 4.318 0 0110 5.688 4.318 4.318 0 0114.329 10 4.318 4.318 0 0110 14.312zM13.31 10A3.304 3.304 0 0110 13.297 3.304 3.304 0 016.69 10c0-.561.14-1.09.39-1.553v.001c0 .75.61 1.358 1.362 1.358a1.36 1.36 0 001.363-1.358c0-.75-.61-1.357-1.363-1.357A3.306 3.306 0 0110 6.703 3.304 3.304 0 0113.31 10z"/>
</svg>
