<svg xmlns="http://www.w3.org/2000/svg" xmlns:xlink="http://www.w3.org/1999/xlink" width="100" height="518" viewBox="0 0 100 518">
    <defs>
        <path id="prefix__a" d="M0 0H100V518H0z"/>
        <path id="prefix__c" d="M0 0H100V518H0z"/>
        <linearGradient id="prefix__d" x1="50%" x2="50%" y1="55.874%" y2="71.893%">
            <stop offset="0%" stop-color="#FFF" stop-opacity="0"/>
            <stop offset="100%" stop-color="#FFF"/>
        </linearGradient>
    </defs>
    <g fill="none" fill-rule="evenodd">
        <mask id="prefix__b" fill="#fff">
            <use xlink:href="#prefix__a"/>
        </mask>
        <g mask="url(#prefix__b)">
            <g>
                <g>
                    <path fill="#B2B2B1" d="M150.636 198.26c3.776-.554 7.919-2.385 9.259-4.343.113-.166.2-.33.271-.493.047.364-.063.747-.337 1.148-1.287 1.883-5.759 3.627-9.193 3.688zm-2.215-.004l.155-.022c.024.006.051.01.076.015-.077.001-.155.007-.23.007zm-2.57-.016c.129-.017.26-.036.39-.055.077.02.163.033.243.05a15.31 15.31 0 01-.634.005zm-2.597-.001c-.164 0-.317-.013-.477-.018.22-.026.443-.061.663-.092.141.035.293.06.44.09-.208.007-.421.02-.626.02zm-4.188-.038c.336-.038.676-.09 1.016-.139.212.054.438.095.665.137-.575.024-1.136.024-1.68.002zm-4.543-.017a42.754 42.754 0 001.562-.192c.303.075.62.139.946.193-.862.04-1.7.042-2.508 0zm-5.365-.028c.694-.07 1.395-.153 2.101-.254.406.1.826.19 1.27.26-1.163.06-2.292.06-3.371-.006zm-6.383-.029a61.66 61.66 0 002.73-.324c.54.133 1.108.24 1.703.329a36.14 36.14 0 01-4.433-.005zm-7.743-.038c1.158-.106 2.33-.24 3.522-.409.707.174 1.456.314 2.242.423-2 .121-3.934.121-5.764-.014zm-9.163-.037c-.008 0-.015-.002-.023-.003a85.91 85.91 0 004.401-.51c.892.217 1.839.391 2.836.524-2.506.16-4.93.163-7.214-.011zm-10.873-.036c-12.868-.985-17.97-6.199-19.982-10.398-16.222-33.832-32.439-67.664-48.658-101.499L1.027 33.282c-1.49-3.107-1.014-6.481 1.412-10.03C6.612 17.15 16.248 11 28.875 6.38 39.835 2.366 51.24.178 60.89.178c1.508 0 2.973.053 4.387.162 12.869.985 17.97 6.198 19.983 10.397l23.454 48.926c16.843 35.14 33.685 70.274 50.532 105.41.913 1.905 1.08 3.91.52 5.995-.069-.176-.126-.352-.208-.525-13.519-28.194-27.033-56.387-40.548-84.582l-21.108-44.03c-2.432-5.075-8.236-8.103-16.785-8.758-8.74-.669-19.824 1.168-30.405 5.042C40.159 42.08 32.1 47.226 28.604 52.338c-2.057 3.008-2.458 5.875-1.19 8.521l21.532 44.916c13.374 27.9 26.748 55.798 40.124 83.697 2.24 4.672 7.345 7.604 14.812 8.551-3.117.201-6.103.207-8.886-.007zm64.845-22.46c-.053-.128-.093-.26-.155-.389l-.749-1.562a12.41 12.41 0 00.85-2.006c.4 1.272.41 2.596.054 3.958zm.063 3.743c-.039-.092-.067-.185-.11-.276l-.623-1.3c.287-.545.513-1.085.687-1.62.315 1.029.326 2.097.046 3.196zm.054 3.121c-.027-.06-.044-.122-.073-.183l-.518-1.082c.229-.436.41-.868.554-1.297.243.826.252 1.682.037 2.562zm.046 2.6c-.015-.034-.025-.069-.042-.103l-.43-.899c.18-.346.326-.689.442-1.028.185.655.193 1.333.03 2.03zm.04 2.171c-.006-.013-.009-.026-.015-.04l-.359-.747a6.14 6.14 0 00.35-.805c.137.515.144 1.046.025 1.592zm.035 1.811l-.292-.608c.108-.207.198-.413.272-.617.1.397.105.805.02 1.225zm.03 1.515l-.222-.462c.08-.156.15-.31.207-.463.068.3.073.61.014.925zm.024 1.26l-.162-.338c.055-.108.107-.216.15-.323.042.216.049.436.012.662zm.023 1.054a32.52 32.52 0 00-.12-.25c.034-.07.085-.14.113-.208.026.15.028.302.007.458zm-12.103 5.042c4.845-1.02 9.729-3.343 11.531-5.822l.252.525c-.06.112-.109.223-.186.335-1.591 2.326-6.542 4.501-11.041 5.141a4.81 4.81 0 01-.556-.179zm-2.5-.107c.481-.1.962-.212 1.44-.334.15.136.319.258.506.367-.416.08-.828.148-1.239.206a5.328 5.328 0 01-.707-.24zm-2.999-.128c.596-.124 1.193-.26 1.788-.411.19.172.405.327.645.463-.515.099-1.026.184-1.536.257a6.456 6.456 0 01-.897-.309zm-3.595-.15a50.78 50.78 0 002.206-.505c.242.22.516.418.829.59-.629.12-1.256.227-1.879.316a7.747 7.747 0 01-1.156-.4zm-4.315-.178a60.613 60.613 0 002.707-.62c.301.275.644.523 1.037.733-.77.15-1.54.28-2.302.389a9.238 9.238 0 01-1.442-.502zm-5.148-.201a72.156 72.156 0 003.293-.757c.371.336.789.639 1.275.894-.94.184-1.876.341-2.806.475a11.02 11.02 0 01-1.762-.612zm-6.204-.25c1.33-.27 2.667-.58 4.012-.922.461.417.987.79 1.596 1.103a68.106 68.106 0 01-3.412.579c-.802-.2-1.523-.462-2.196-.76zm-7.465-.285c1.627-.33 3.266-.7 4.912-1.118.561.502 1.203.951 1.945 1.327-1.393.275-2.783.51-4.16.708a16.158 16.158 0 01-2.697-.917zm42.144-21.355c.003-.005.008-.01.01-.015.32-.468.603-.932.857-1.394.23.479.459.956.687 1.435.095.197.166.396.237.596-.166.552-.401 1.111-.69 1.677l-1.101-2.299zm.304 3.66l-1.186-2.474c.272-.342.523-.683.761-1.024.375.78.749 1.56 1.122 2.341-.205.383-.435.769-.697 1.157zm.091.19l.003-.004c.261-.382.494-.76.703-1.138l.561 1.173c.078.161.135.325.194.488a8.39 8.39 0 01-.56 1.363l-.9-1.882zm.24 3.018l-.973-2.03c.219-.275.42-.55.613-.826l.922 1.924c-.165.308-.352.62-.562.932zm.092.19c.21-.307.4-.614.568-.918.153.319.306.636.458.956.063.13.11.264.158.397-.109.362-.263.73-.45 1.1l-.734-1.534zm.185 2.486l-.795-1.661c.175-.22.335-.44.49-.662l.756 1.577a9.341 9.341 0 01-.45.746zm.092.19c.168-.246.319-.49.455-.735l.372.776c.051.107.088.215.128.322a5.62 5.62 0 01-.358.883l-.597-1.245zm.141 2.04l-.649-1.353c.139-.174.265-.348.39-.523l.615 1.286a8.033 8.033 0 01-.356.59zm.092.191a8.3 8.3 0 00.36-.582l.3.627c.041.085.071.172.103.26-.07.23-.167.465-.281.7l-.482-1.005zm.104 1.67l-.526-1.096c.108-.137.206-.273.303-.41.167.349.333.697.501 1.045a6.495 6.495 0 01-.278.461zm.091.19c.103-.152.195-.303.281-.455l.24.504c.034.068.058.138.083.207-.054.181-.13.365-.219.55l-.385-.806zm.073 1.362l-.433-.902c.079-.1.166-.2.239-.3l.407.85a5.204 5.204 0 01-.213.352zm.091.19a5.82 5.82 0 00.215-.347l.192.398c.028.06.035.124.058.185a3.342 3.342 0 01-.16.402l-.305-.638zm-.422.54l.354.737c-1.764 2.52-6.79 4.884-11.72 5.874a2.954 2.954 0 01-.58-.368c5.025-1.3 9.817-3.68 11.946-6.243zm-12.562 5.467l-.005-.01c5.045-1.559 9.661-3.964 12.037-6.564l.443.925c-2.091 2.585-6.939 4.984-12.012 6.278a2.24 2.24 0 01-.463-.629zm-.176.046l.015.032c.106.221.25.419.418.6a36.14 36.14 0 01-1.58.355c-.267-.132-.5-.29-.707-.464a45.91 45.91 0 001.854-.523zm-2.587-.398l-.007-.014a53.697 53.697 0 002.068-.685l.45.94c-.642.195-1.29.376-1.942.541-.238-.23-.43-.49-.569-.782zm-.18.04l.02.038c.133.279.314.53.531.755-.637.16-1.276.304-1.916.432a4.305 4.305 0 01-.9-.587c.761-.197 1.517-.41 2.266-.638zm-3.134-.46l-.011-.025c.848-.26 1.687-.539 2.515-.833l.554 1.156a51.98 51.98 0 01-2.357.658 3.3 3.3 0 01-.7-.956zm-.183.029l.023.048c.165.345.388.654.66.93-.776.194-1.553.37-2.33.526a5.207 5.207 0 01-1.114-.727 65.433 65.433 0 002.76-.777zm-3.79-.531l-.011-.023c1.02-.315 2.037-.65 3.05-1.01.225.466.449.934.673 1.401a63.41 63.41 0 01-2.853.797c-.36-.342-.65-.729-.86-1.165zm-.185.029l.024.048c.203.423.476.803.813 1.14-.94.237-1.882.45-2.825.64a6.281 6.281 0 01-1.36-.887 76.625 76.625 0 003.348-.941zm-4.582-.63a.656.656 0 01-.018-.036 92.167 92.167 0 003.696-1.223c.274.573.55 1.147.823 1.72a77.027 77.027 0 01-3.443.962 4.783 4.783 0 01-1.058-1.424zm-.19.016l.029.06c.25.522.588.988 1.008 1.4a73.965 73.965 0 01-3.416.774 7.5 7.5 0 01-1.682-1.095 90.226 90.226 0 004.06-1.14zm-5.53-.736a1.617 1.617 0 00-.018-.039c1.492-.46 2.982-.954 4.465-1.482l.998 2.08a92.112 92.112 0 01-4.16 1.162 5.77 5.77 0 01-1.285-1.721zm-.19.015l.03.062c.304.633.72 1.199 1.234 1.698-1.377.347-2.76.66-4.139.938a9.023 9.023 0 01-2.028-1.318c1.632-.417 3.268-.88 4.902-1.38zm30.462-16.71c.224-.252.438-.506.644-.76l1.198 2.496c-.193.276-.397.552-.614.827l-1.228-2.563zm.586 3.32c-.417-.868-.832-1.737-1.25-2.606.18-.188.367-.376.537-.564l1.232 2.568c-.164.201-.342.402-.519.603zm.086.18c.18-.202.351-.405.516-.607l.985 2.052c-.154.222-.318.442-.491.662l-1.01-2.107zm.477 2.74l-1.028-2.144c.142-.149.291-.298.425-.446l1.013 2.112c-.13.16-.27.32-.41.478zm.085.178c.142-.16.278-.32.41-.48l.807 1.684c-.122.174-.252.35-.389.523l-.828-1.727zm.385 2.256l-.843-1.759c.11-.116.228-.231.332-.347l.831 1.733c-.1.125-.212.25-.32.373zm.085.178c.11-.125.216-.25.319-.377l.66 1.379a9.414 9.414 0 01-.303.408l-.676-1.41zm.308 1.853l-.69-1.442c.085-.088.173-.176.254-.265l.682 1.421c-.078.095-.163.19-.246.286zm.086.177c.084-.096.164-.193.243-.288l.538 1.12c-.073.105-.152.21-.232.314l-.55-1.146zm-.45.48l.567 1.183c-2.344 2.605-6.97 5.022-12.03 6.582l-.453-.948c4.96-1.777 9.363-4.206 11.916-6.816zm-12.593 5.406c4.858-1.954 9.104-4.413 11.81-7.04l.7 1.463c-2.528 2.616-6.936 5.052-11.909 6.83l-.601-1.253zm-.165.066l.597 1.246c-.68.241-1.371.469-2.07.684l-.557-1.163a60.903 60.903 0 002.03-.767zm-2.83-.904a67.08 67.08 0 001.994-.838l.76 1.583a62.08 62.08 0 01-2.03.767l-.725-1.512zm-2.114.815c.663-.243 1.31-.493 1.948-.748l.721 1.504c-.827.293-1.667.57-2.516.831l-.675-1.408c.173-.062.348-.116.522-.179zm-1.489-1.839a80.874 80.874 0 002.427-1.018l.927 1.935c-.81.323-1.633.634-2.468.932l-.886-1.849zm-2.514.968c.8-.293 1.58-.594 2.349-.901.293.614.588 1.228.883 1.841a77.016 77.016 0 01-3.053 1.01l-.827-1.727c.216-.077.433-.144.648-.223zm-1.807-2.196a96.53 96.53 0 002.943-1.234l1.126 2.347c-.983.391-1.982.768-2.995 1.13-.358-.748-.717-1.495-1.074-2.243zm-2.993 1.153c.962-.352 1.9-.716 2.827-1.085l1.071 2.235c-1.216.43-2.448.838-3.696 1.22l-1-2.087c.266-.095.533-.186.798-.283zm23.636-13.534c.15-.148.283-.297.426-.445l1.255 2.617c-.137.15-.28.302-.422.453l-1.259-2.625zm.792 3.105l-1.27-2.65c.113-.11.233-.216.343-.325l1.26 2.63c-.11.116-.219.23-.333.345zm.086.18c.116-.117.22-.233.332-.348.345.717.689 1.436 1.033 2.154-.106.118-.218.236-.33.355l-1.035-2.162zm.648 2.56l-1.046-2.183c.086-.082.178-.164.262-.247l1.04 2.166-.256.264zm.084.177c.09-.089.17-.178.255-.266l.848 1.769c-.081.09-.166.181-.252.272l-.85-1.775zm-.467.443l.863 1.8c-2.687 2.63-6.94 5.092-11.806 7.047l-.76-1.587c4.922-2.173 8.951-4.676 11.703-7.26zm-12.748 5.08c4.773-2.283 8.738-4.825 11.615-7.443l1.05 2.192c-2.822 2.653-6.946 5.155-11.703 7.258l-.962-2.006zm-.162.076l.96 2.001a65.25 65.25 0 01-1.995.837l-.93-1.939c.669-.295 1.324-.594 1.965-.899zm-3.218-1.714c.66-.314 1.305-.634 1.937-.957l1.195 2.492c-.643.306-1.3.604-1.966.898l-1.166-2.433zm-.16.076l1.163 2.427a79.99 79.99 0 01-2.427 1.017l-1.128-2.352a89.27 89.27 0 002.391-1.092zm14.266-9.153c.09-.083.176-.166.264-.248l1.275 2.66c-.085.083-.175.165-.263.249l-1.276-2.661zm-.471.433l1.276 2.662c-2.941 2.675-6.973 5.214-11.619 7.439l-1.195-2.494c4.636-2.378 8.551-4.958 11.538-7.607zm-18.736-7.41l-.378-.786c-.228-.476-.153-.996.222-1.546 1.313-1.92 5.936-3.693 9.39-3.693.236 0 .468.008.692.025 1.127.086 2.592.44 3.166 1.638l.377.786 5.188 10.82c-2.98 2.65-6.895 5.233-11.535 7.613l-7.122-14.856zm-.538-.709l.377.786 7.123 14.86c-.633.323-1.278.642-1.937.958L129.48 166.34c-.277-.577-.187-1.207.268-1.872 1.578-2.307 7.133-4.44 11.283-4.44.284 0 .562.01.831.03 1.947.15 3.265.832 3.813 1.975l8.326 17.366c-.068.062-.129.123-.197.185l-5.165-10.774-.377-.787c-.484-1.008-1.628-1.608-3.313-1.737-3.548-.277-8.81 1.653-10.241 3.744-.415.606-.494 1.187-.236 1.724zM155.44 182.4l1.05 2.19c-.063.063-.13.125-.195.187l-1.05-2.192.195-.185zm-.28.01l-1.274-2.658.196-.185 1.276 2.66-.198.183zm-17.84 7.186c-.958.42-1.94.833-2.944 1.235l-12.756-26.61-5.735-11.965c-.406-.845-.275-1.765.388-2.735 2.279-3.331 10.296-6.41 16.282-6.41.41 0 .81.014 1.198.043 2.818.216 4.728 1.207 5.523 2.866l7.07 14.746 8.536 17.807c-.11.108-.232.215-.345.323l-11.61-24.22c-.69-1.437-2.328-2.295-4.738-2.48-5.1-.395-12.659 2.372-14.713 5.377-.589.859-.701 1.681-.337 2.442l6.795 14.174 7.386 15.407zm-7.226-15.484l-6.795-14.174c-.335-.7-.225-1.461.324-2.265 1.897-2.772 8.57-5.336 13.555-5.336.342 0 .675.012.998.037 2.343.18 3.93 1.003 4.59 2.38l11.635 24.27c-.087.082-.174.165-.264.248l-8.3-17.316c-.578-1.203-1.946-1.92-3.96-2.076-4.25-.332-10.561 1.981-12.275 4.487-.493.722-.588 1.411-.281 2.05l10.553 22.016c-.778.37-1.577.734-2.39 1.092l-7.39-15.413zm27.414 12.602l.696 1.45c-.06.07-.124.136-.188.204l-.697-1.455c.066-.066.125-.133.19-.199zm-.273.025l-.858-1.791c.064-.062.133-.123.196-.185l.853 1.78c-.064.065-.125.131-.191.196zm-26.819 5.586a110.122 110.122 0 01-4.466 1.481c-5.92-12.345-11.837-24.69-17.755-37.035l-11.882-24.787c-.59-1.23-.4-2.568.563-3.978 3.287-4.804 14.848-9.248 23.48-9.248.59 0 1.167.02 1.727.063 4.072.312 6.834 1.747 7.986 4.15l9.74 20.318 16.298 33.997c-.17.19-.355.38-.534.57l-12.264-25.58-8.058-16.811c-.986-2.057-3.335-3.285-6.79-3.55-7.332-.565-18.2 3.41-21.152 7.726-.838 1.226-1 2.395-.482 3.477l8.483 17.695c5.034 10.505 10.07 21.008 15.106 31.512zm-14.946-31.589l-8.482-17.695c-.49-1.02-.332-2.13.468-3.3 2.736-4 12.364-7.7 19.554-7.7.491 0 .971.017 1.437.052 3.39.26 5.686 1.453 6.643 3.45l8.06 16.811 12.291 25.64c-.142.148-.278.296-.426.445l-8.51-17.75-7.068-14.746c-.825-1.72-2.785-2.745-5.671-2.966-6.107-.472-15.178 2.844-17.64 6.443-.701 1.026-.837 2.007-.402 2.914l5.735 11.965 12.752 26.6c-.922.366-1.854.728-2.811 1.078-.27.1-.543.191-.815.288l-15.115-31.529zm43.45 28.923l.44.919c-.052.075-.12.148-.178.222-.147-.306-.292-.612-.44-.917.066-.074.117-.15.178-.224zm-.26.052c-.187-.392-.375-.782-.563-1.173.064-.066.13-.132.19-.2l.555 1.16c-.057.071-.121.142-.183.213zm-38.091 5.601c-1.679.423-3.351.803-5.01 1.135-2.153-1.023-3.713-2.475-4.604-4.333-9.265-19.324-18.528-38.648-27.792-57.974L68.139 102.8c-.856-1.785-.582-3.726.814-5.767 4.739-6.928 21.403-13.336 33.845-13.336.85 0 1.681.031 2.486.092 5.88.45 9.868 2.524 11.533 5.997l14.21 29.641c8.911 18.592 17.823 37.183 26.736 55.773-.237.342-.488.685-.76 1.027-6.487-13.53-12.972-27.06-19.458-40.591l-13.34-27.828c-1.414-2.95-4.784-4.709-9.745-5.089-10.54-.81-26.18 4.902-30.424 11.107-1.198 1.753-1.431 3.424-.69 4.969l9.37 19.547c8.77 18.295 17.538 36.589 26.31 54.881a7.122 7.122 0 001.543 2.09zm-1.384-2.165l-26.308-54.882-9.371-19.548c-.71-1.482-.483-3.094.678-4.79 3.946-5.77 17.827-11.107 28.19-11.107.709 0 1.402.026 2.071.077 4.895.374 8.215 2.1 9.6 4.988l13.34 27.828c6.497 13.555 12.994 27.11 19.494 40.664a24.72 24.72 0 01-.646.76l-16.264-33.926-9.74-20.318c-1.18-2.463-3.993-3.932-8.132-4.25-8.79-.672-21.828 4.088-25.367 9.263-1.003 1.465-1.197 2.863-.577 4.155l11.881 24.787 17.743 37.01c-1.667.51-3.334.977-4.997 1.4-.669-.615-1.212-1.314-1.595-2.111zm40.68-1.515l.15.312c.018.038.022.079.037.118-.032.107-.06.214-.11.323-.08-.164-.158-.33-.237-.494.059-.087.11-.172.16-.26zm-.251.069l-.346-.72c.06-.075.124-.15.178-.225l.327.682a4.457 4.457 0 01-.159.263zm-49.814 5.724c-1.67.23-3.31.402-4.922.527-9.975-1.009-14.025-5.173-15.647-8.557-13.376-27.898-26.75-55.796-40.125-83.697l-21.53-44.916c-1.24-2.584-.844-5.392 1.175-8.344 6.83-9.985 30.845-19.219 48.772-19.219 1.223 0 2.42.043 3.58.132 10.717.821 14.964 5.16 16.64 8.657l21.107 44.03c13.515 28.196 27.03 56.389 40.548 84.582.115.24.201.483.287.726-.201.677-.49 1.362-.846 2.053-10.982-22.904-21.962-45.81-32.943-68.716l-17.59-36.693c-2.029-4.233-6.87-6.76-14-7.306-7.289-.556-16.523.973-25.344 4.203-8.798 3.22-15.515 7.512-18.43 11.774-1.719 2.511-2.053 4.906-.992 7.116l17.137 35.751c11.413 23.81 22.827 47.619 34.242 71.426 1.498 3.125 4.53 5.316 8.88 6.47zm-8.72-6.548c-11.416-23.808-22.829-47.617-34.242-71.426L49.7 83.7c-1.03-2.149-.702-4.483.977-6.938 5.69-8.318 25.695-16.01 40.63-16.01 1.02 0 2.018.036 2.984.11 8.923.683 12.46 4.295 13.854 7.206l17.589 36.691c11.001 22.95 22.001 45.898 33.004 68.845-.252.473-.535.948-.859 1.426-8.899-18.56-17.795-37.118-26.693-55.68l-14.21-29.642c-1.694-3.532-5.732-5.641-11.68-6.096-12.646-.975-31.401 5.877-36.49 13.32-1.435 2.098-1.714 4.098-.829 5.945l15.024 31.34c9.264 19.326 18.527 38.65 27.793 57.975.88 1.833 2.395 3.28 4.476 4.314-1.687.332-3.36.62-5.009.854-5.557-1.363-8.063-4.147-9.183-6.483zm12.935 7.113a28.638 28.638 0 01-3.276-.519 96.952 96.952 0 004.799-.838c.77.361 1.614.668 2.53.92-1.368.186-2.72.333-4.053.437zm7.692.046a23.65 23.65 0 01-2.64-.42 82.213 82.213 0 003.93-.694c.628.294 1.31.548 2.052.755a57.682 57.682 0 01-3.342.359zm6.462.028a19.691 19.691 0 01-2.126-.333 68.486 68.486 0 003.156-.558c.5.234 1.043.437 1.631.605-.897.12-1.786.216-2.661.286zm5.346.032a16.558 16.558 0 01-1.747-.271 57.634 57.634 0 002.573-.455c.405.193.847.359 1.322.498a40.35 40.35 0 01-2.148.228zm4.456.03a13.61 13.61 0 01-1.376-.212 46.94 46.94 0 002.06-.365c.32.152.668.284 1.039.396-.58.076-1.155.136-1.723.181zm3.68.021a11.34 11.34 0 01-1.042-.158 38.959 38.959 0 001.636-.293c.246.118.514.22.797.31-.469.06-.931.106-1.39.141zm3.107.024a9.45 9.45 0 01-.79-.116c.424-.068.85-.146 1.277-.232.187.09.387.17.6.24-.366.046-.728.08-1.087.108zm2.589.022a9.174 9.174 0 01-.579-.08c.325-.054.65-.117.977-.182.14.067.289.128.445.182a18.93 18.93 0 01-.843.08zm2.131.019a6.534 6.534 0 01-.375-.054c4.414-.732 9.137-2.869 10.694-5.146.055-.081.086-.16.133-.24l.122.254c.014.03.017.06.027.088a2.46 2.46 0 01-.332.702c-1.453 2.124-6.277 4.093-10.269 4.396zm10.498-3.54c.373-.545.46-1.067.289-1.559.099-.362.091-.714-.028-1.052.117-.422.112-.83-.019-1.224a2.471 2.471 0 00-.021-1.54 2.94 2.94 0 00-.036-1.812c.216-.75.2-1.475-.041-2.172.26-.898.242-1.768-.048-2.604.314-1.079.293-2.123-.055-3.124.378-1.294.353-2.545-.065-3.748.454-1.551.425-3.053-.076-4.494.648-2.207.498-4.331-.469-6.348-16.846-35.135-33.688-70.27-50.532-105.408L85.422 10.66C82.505 4.578 75.544.947 65.292.16 54.807-.64 41.51 1.565 28.813 6.212c-12.66 4.635-22.327 10.81-26.52 16.94C-.173 26.757-.653 30.192.867 33.36l25.329 52.837c16.218 33.833 32.436 67.666 48.657 101.498 2.916 6.082 9.877 9.713 20.13 10.498 1.418.11 2.887.163 4.4.163 1.774 0 3.61-.076 5.49-.22.326.032.648.068.983.093 1.183.09 2.408.136 3.668.136 1.44 0 2.939-.08 4.46-.194.31.033.617.065.935.089.986.076 2.007.113 3.058.113 1.198 0 2.445-.065 3.71-.16.261.027.52.054.787.075.808.063 1.639.092 2.492.092 1.044 0 2.12-.049 3.215-.136.2.02.385.053.59.069.673.05 1.366.076 2.077.076.868 0 1.764-.04 2.674-.112.168.017.324.044.497.057a22.62 22.62 0 001.731.064c.71 0 1.442-.04 2.184-.098.155.017.3.042.46.054.468.036.95.053 1.444.053.588 0 1.197-.033 1.812-.08.133.014.256.035.392.045.39.03.792.045 1.203.045.488 0 .994-.029 1.505-.067.112.012.218.03.334.038.325.025.66.037 1.003.037.404 0 .824-.023 1.248-.055.095.01.185.025.284.033.271.021.55.031.837.031.335 0 .682-.018 1.033-.045.082.01.16.022.245.028.226.018.459.026.698.026 3.504 0 8.205-1.813 9.544-3.77zM241.267 411.873l-.023.026v.034c.031 71.647.072 143.285.112 214.93v.11c.004 19.735-37.766 32.84-62.75 32.85h-.024c-13.658 0-21.495-3.74-21.497-10.262-.013-25.763-.013-51.81-.013-77.572 1.073 4.646 7.45 7.282 17.9 7.282h.021c20.885-.007 52.459-10.994 52.455-27.538v-.088c-.034-59.695-.067-119.381-.094-179.077l165.325-179.73c3.098-3.368 4.058-6.44 2.853-9.127-.68-1.513-2.004-2.792-3.693-3.86 8.33-2.586 17.289-4.026 26.166-4.174 6.945-.1 21.914 2.716 25.069 9.75 1.412 3.147.27 6.76-3.39 10.74L241.267 411.874zM158.403 213.54l31.676-34.438c2.32-2.52 6.156-3.467 8.973-3.513.786-.01 2.19.212 3.128.73-2.077.672-4.099 1.749-5.6 3.38l-38.002 41.318c-.816.683-1.344 1.406-1.593 2.157v-7.128c0-.875.475-1.715 1.418-2.506zm49.089-37.942h.079c.958 0 2.615.27 3.715.887-2.503.804-4.94 2.108-6.748 4.073l-8.033 8.734-25.897 28.155-.002-3.742 32.023-34.812c.621-.676.811-1.297.565-1.847-.116-.256-.333-.474-.599-.667 1.697-.507 3.414-.756 4.897-.78zm10.127.01h.094c1.161 0 3.174.33 4.498 1.084-3.013.964-5.95 2.53-8.126 4.896l-40.743 44.296-.002-4.535 38.431-41.78c.74-.806.968-1.544.675-2.197-.144-.322-.412-.597-.751-.833 2.051-.62 4.13-.903 5.924-.932zm12.15.008h.112c1.406 0 3.846.402 5.439 1.324-3.626 1.153-7.162 3.036-9.78 5.88-16.309 17.732-32.614 35.46-48.92 53.186 0-1.829 0-3.658-.002-5.487l46.122-50.141c.884-.961 1.156-1.841.808-2.617-.176-.393-.507-.728-.926-1.015a26.61 26.61 0 017.146-1.13zm14.578.01l.135-.001c1.698 0 4.652.489 6.566 1.609-4.361 1.384-8.616 3.644-11.764 7.064l-8.758 9.522-49.972 54.332c0-2.211-.003-4.42-.003-6.63l55.35-60.175c1.056-1.147 1.38-2.198.966-3.121-.214-.478-.62-.887-1.135-1.234a31.969 31.969 0 018.615-1.366zm17.492.008l.16-.001c2.048 0 5.62.594 7.92 1.953-5.243 1.658-10.361 4.373-14.144 8.484l-13.843 15.05-56.66 61.602-.005-8 66.426-72.214c1.262-1.372 1.65-2.625 1.157-3.727-.26-.58-.756-1.076-1.387-1.494 3.59-1.097 7.237-1.602 10.376-1.653zm20.988.008h.193c2.457 0 6.74.713 9.506 2.343-.689.218-1.37.45-2.043.696-6.076 2.219-11.235 5.509-14.92 9.513l-9.46 10.284-75.172 81.73c-.002-3.216-.005-6.431-.005-9.647l79.716-86.662c1.508-1.64 1.974-3.137 1.385-4.452-.316-.704-.918-1.304-1.689-1.81 4.322-1.324 8.71-1.932 12.49-1.995zm25.185.01h.232c2.96 0 8.123.86 11.446 2.831a60.33 60.33 0 00-2.486.846c-7.288 2.663-13.477 6.609-17.898 11.413l-.904.981C264.84 228.214 231.28 264.7 197.72 301.185l-.006-11.62 95.663-103.999c1.806-1.962 2.364-3.753 1.659-5.323-.381-.852-1.115-1.577-2.052-2.186 5.199-1.597 10.482-2.33 15.028-2.405zm30.219.01c3.504-.048 9.955.978 14.053 3.419a71.617 71.617 0 00-3.018 1.026c-8.743 3.194-16.167 7.928-21.47 13.69l-25.608 27.841c-32.11 34.912-64.215 69.817-96.321 104.721l-.008-13.988 114.8-124.805c2.16-2.348 2.83-4.49 1.988-6.368-.466-1.039-1.372-1.919-2.525-2.657a65.4 65.4 0 0118.109-2.878zm-167.794 53.382c-3.693 4.013-7.387 8.031-11.079 12.045-1.246 1.042-2.032 2.148-2.354 3.3v-10.484c0-1.272.688-2.493 2.052-3.636l11.375-12.366c.002 3.714.003 7.427.006 11.14zm2.735 10.712l-2.55 2.774-.007-13.418 2.55-2.772.007 13.416zm3.28 12.855l-3.094 3.364-.009-16.15 3.094-3.365.01 16.15zm3.934 15.422l-3.746 4.075-.01-19.429 3.747-4.073c.002 6.476.006 12.952.01 19.427zm4.72 18.507l-4.53 4.925c-.003-7.788-.008-15.576-.012-23.363l4.53-4.925.013 23.363zm5.663 22.205l-5.47 5.946-.015-28.083c1.823-1.98 3.646-3.963 5.47-5.946.004 9.362.01 18.722.015 28.083zm6.791 26.645l-6.596 7.172-.018-33.749 6.598-7.172c.004 11.25.011 22.5.016 33.749zm8.15 31.97l-7.95 8.645c-.008-13.516-.015-27.03-.021-40.547l7.95-8.644.02 40.547zm-45.3-113.73l-.023.001h-.004c-2.026 0-3.228-.513-3.37-1.407v-6.632c0-1.533.828-3.002 2.467-4.375 3.653-3.97 7.305-7.94 10.957-11.912l.007 13.417-10.033 10.909zm10.037-5.229c0 3.074-5.787 5.132-9.789 5.222l9.786-10.64.003 5.418zm-13.434 9.912v-5.583c.432.674 1.557 1.055 3.238 1.075l-.386.418c-1.542 1.29-2.492 2.662-2.852 4.09zm4.103 10.971l-.021.001h-.005c-2.47 0-3.923-.636-4.067-1.742v-7.93c0-1.844.995-3.612 2.965-5.261l.502-.546c4.076-.036 10.135-2.182 10.134-5.405l-.002-5.61 2.55-2.773.009 16.15a81864.72 81864.72 0 00-12.065 13.116zm12.067-6.324v.03c.001 3.713-7.008 6.196-11.82 6.286l11.818-12.847.002 6.53zm-16.16 12.088v-6.948c.48.852 1.848 1.337 3.934 1.357-.162.176-.323.35-.484.527-1.906 1.595-3.053 3.294-3.45 5.064zm4.938 13.018l-.02.001h-.005c-3 0-4.757-.782-4.904-2.14 0-3.163.002-6.326 0-9.489 0-2.22 1.197-4.345 3.563-6.326l.6-.653c4.886-.036 12.168-2.606 12.167-6.469v-.03l-.004-6.723 3.094-3.365.01 19.428-14.5 15.766zm14.505-7.57c.001 4.48-8.48 7.476-14.261 7.567a228534.5 228534.5 0 0014.257-15.501l.004 7.933zm-19.433 14.629v-8.581c.536 1.066 2.197 1.674 4.768 1.696l-.602.654c-2.343 1.96-3.727 4.051-4.166 6.23zm5.94 15.478h-.024c-3.513 0-5.628-.886-5.903-2.445 0-3.852-.002-7.7-.004-11.532 0-2.668 1.438-5.223 4.28-7.604l.716-.78c5.856-.034 14.608-3.117 14.606-7.765l-.004-8.108 3.747-4.074c.004 7.788.007 15.575.012 23.362-5.807 6.315-11.618 12.632-17.426 18.946zm17.43-9.137v.034c.003 5.401-10.24 9.008-17.186 9.098l17.182-18.679.005 9.547zm-16.217 36.18h-.022c-4.243-.001-6.793-1.078-7.107-2.973 0-4.617-.001-9.23-.004-13.824 0-3.207 1.726-6.278 5.14-9.136.286-.31.573-.622.858-.934 7.02-.035 17.532-3.728 17.53-9.28v-.033l-.004-9.74 4.53-4.925.014 28.083-20.935 22.762zm20.942-10.943c.001 6.507-12.355 10.848-20.697 10.938l20.69-22.495.007 11.557zm-19.488 43.39H165.62c-5.127 0-8.198-1.31-8.551-3.614-.001-5.533-.002-11.059-.005-16.563 0-3.855 2.075-7.544 6.173-10.975l1.029-1.12c8.414-.034 21.042-4.461 21.04-11.118l-.006-11.75c1.823-1.982 3.646-3.965 5.47-5.946.005 11.249.01 22.5.017 33.748l-25.146 27.339zm25.153-13.196v.049c.002 7.833-14.889 13.054-24.908 13.144l24.901-27.073.007 13.88zm-23.41 52.134h-.019c-6.214 0-9.911-1.607-10.285-4.426 0-6.617-.002-13.228-.005-19.811 0-4.632 2.491-9.064 7.412-13.183l1.233-1.34c10.09-.034 25.254-5.342 25.252-13.325v-.05l-.007-14.072c2.199-2.391 4.397-4.782 6.597-7.172l.02 40.547c-10.066 10.943-20.132 21.889-30.199 32.832zm30.207-15.854l.001.057c.003 9.425-17.932 15.703-29.963 15.792l29.953-32.565.01 16.716zm-40.51 12.184c.874 2.44 4.459 3.822 10.142 3.844l-1.361 1.48c-5.13 4.294-8.07 8.884-8.78 13.673V405.36zm-.011-38.226c.778 1.987 3.742 3.111 8.41 3.134l-1.116 1.213c-4.219 3.53-6.66 7.303-7.293 11.238l-.001-15.585zm-.012-31.856c.697 1.61 3.146 2.52 6.967 2.542l-.911.99c-3.485 2.918-5.503 6.034-6.055 9.285v-12.817zm-.011-26.549c.626 1.296 2.649 2.027 5.766 2.049l-.742.806c-2.859 2.392-4.53 4.946-5.023 7.608l-.001-10.463zm48.7 128.05c.003 11.398-21.833 18.968-36.276 18.972h-.013c-7.521 0-11.973-1.962-12.365-5.4-.001-7.919-.004-15.829-.007-23.708 0-5.561 2.99-10.884 8.899-15.83l1.478-1.608c12.102-.032 30.31-6.397 30.307-15.972v-.057l-.01-16.91 7.95-8.644c.014 23.052.024 46.104.037 69.158zm9.784 52.188v.064c.004 13.689-26.21 22.78-43.55 22.785h-.016c-9.224 0-14.6-2.46-14.874-6.758.003-17.843.005-35.856.002-53.829.993 3.008 5.376 4.7 12.365 4.7h.013c14.515-.005 36.456-7.644 36.454-19.15-.013-23.116-.024-46.234-.036-69.35 3.19-3.47 6.382-6.939 9.574-10.408.02 43.982.044 87.962.068 131.946zm-.068-132.208l-9.574 10.408c-.007-13.515-.015-27.031-.021-40.547l96.451-104.861 25.609-27.843c5.283-5.741 12.684-10.46 21.4-13.643 1.041-.38 2.1-.735 3.17-1.07 1.428.885 2.552 1.948 3.118 3.21.976 2.175.185 4.674-2.35 7.43L215.476 339.64l-.023.025v.034l.01 17.06zm-9.78-44.424c.001 4.74.005 9.478.006 14.217l-7.95 8.644-.017-33.75c33.604-36.533 67.21-73.067 100.813-109.604l.902-.98c4.403-4.784 10.567-8.714 17.828-11.366a58.353 58.353 0 012.636-.89c1.182.736 2.114 1.616 2.583 2.663.811 1.807.153 3.885-1.953 6.177l-114.826 124.83-.024.024.001.035zm-8.14-10.957l-6.596 7.173-.015-28.082 75.305-81.872 9.458-10.283c4.561-4.956 10.747-8.214 17.075-10.188.963.607 1.72 1.331 2.105 2.19.672 1.499.125 3.225-1.627 5.13L197.56 289.47l-.023.024v.036c.001 3.95.004 7.898.006 11.847zm-6.794-30.853c.001 3.292.004 6.583.006 9.874l-5.47 5.947c-.004-7.787-.009-15.575-.012-23.363l56.79-61.743 13.843-15.051c3.798-4.126 8.95-6.84 14.219-8.483.796.502 1.421 1.103 1.74 1.813.558 1.244.102 2.676-1.353 4.258l-79.74 86.688-.024.025.001.035zm-5.658-15.839c0 2.743.002 5.486.004 8.229l-4.53 4.924-.01-19.427 50.103-54.473 8.758-9.521c3.161-3.436 7.451-5.695 11.838-7.065.656.417 1.17.914 1.434 1.5.462 1.03.084 2.22-1.124 3.534l-66.45 72.239-.024.025v.035zm-4.717-13.201l.003 6.858-3.746 4.074-.01-16.15c16.351-17.775 32.701-35.55 49.05-53.328 2.632-2.859 6.203-4.74 9.855-5.88.54.344.963.755 1.18 1.238.382.853.068 1.838-.935 2.929l-55.374 60.2-.024.025.001.034zm-3.93-5.286l-3.094 3.364-.007-13.418 40.874-44.438c2.191-2.38 5.161-3.946 8.2-4.896.444.284.79.623.97 1.021.315.706.055 1.52-.777 2.425l-46.145 50.166-.023.025v.035l.002 5.716zm-3.278-10.123l-2.55 2.773-.007-11.14 26.029-28.298 8.032-8.734c1.822-1.98 4.294-3.282 6.822-4.074.364.235.647.514.793.84.261.582.044 1.256-.645 2.005l-38.454 41.805-.023.025v.035l.003 4.763zm-2.734-8.436l-11.498 12.5c-1.011.847-1.655 1.744-1.938 2.677v-8.653c0-1.056.57-2.07 1.706-3.02l38.01-41.326c1.518-1.648 3.576-2.72 5.681-3.38.291.192.521.416.64.68.214.479.035 1.035-.534 1.654l-32.046 34.837-.024.026v.035l.003 3.97zm56.838 334.005v.088c.005 16.437-31.461 27.354-52.276 27.359h-.02c-11.362 0-17.884-3.105-17.898-8.521 0-12.235.005-24.41.008-36.446l.007-27.983c1.045 3.738 6.329 5.853 14.874 5.853h.017c17.41-.006 43.731-9.168 43.727-22.964v-.064c-.025-44.048-.048-88.093-.069-132.14 45.699-49.682 91.397-99.364 137.095-149.05l9.378-10.197c6.343-6.892 15.227-12.554 25.688-16.376a86.966 86.966 0 013.82-1.29c1.718 1.067 3.068 2.349 3.75 3.87 1.173 2.616.224 5.623-2.822 8.935L227.2 372.473l-.024.027v.034c.026 59.706.06 119.406.093 179.11zM374.492 175.67c.11-.002.22-.002.335-.002 4.288 0 11.798 1.247 16.587 4.121-1.24.391-2.466.806-3.674 1.248-10.489 3.831-19.396 9.51-25.758 16.423l-9.38 10.197c-45.656 49.64-91.31 99.275-136.963 148.908l-.008-16.831 137.766-149.77c2.587-2.812 3.387-5.378 2.38-7.624-.563-1.254-1.662-2.314-3.06-3.202a78.478 78.478 0 0121.775-3.468zm68.743 9.683c-3.127-6.974-17.69-9.854-24.832-9.854-.136 0-.27 0-.401.003-8.948.146-17.977 1.602-26.366 4.223-4.827-2.954-12.465-4.236-16.811-4.236-.115 0-.226.001-.335.004-7.46.121-14.988 1.335-21.982 3.52-4.026-2.459-10.38-3.532-14-3.532-.096 0-.19 0-.28.002a65.594 65.594 0 00-18.315 2.933c-3.36-2.05-8.653-2.944-11.672-2.944-.078 0-.156 0-.233.002a54.621 54.621 0 00-15.26 2.443c-2.804-1.708-7.216-2.454-9.731-2.454-.066 0-.13 0-.193.002-3.836.062-8.3.69-12.689 2.05-2.337-1.434-6.034-2.06-8.138-2.06l-.162.001c-3.196.052-6.915.574-10.57 1.708-1.953-1.197-5.032-1.719-6.786-1.719l-.135.001a32.141 32.141 0 00-8.807 1.422c-1.632-.997-4.197-1.431-5.659-1.431h-.113c-2.218.037-4.8.398-7.337 1.184-1.363-.83-3.5-1.193-4.718-1.193h-.094c-1.848.03-3.998.331-6.113.985-1.14-.692-2.919-.994-3.935-.994h-.079c-1.536.026-3.322.29-5.082.831-.952-.583-2.441-.84-3.292-.84h-.066c-2.854.047-6.743 1.009-9.101 3.571l-31.668 34.43c-.977.818-1.475 1.704-1.475 2.634.005 5.779.004 11.557 0 17.336v18.667c0 .021.01.039.012.06-.001 5.086-.003 10.173 0 15.259 0 .02.008.037.01.058-.003 6.107-.004 12.215 0 18.322 0 .02.008.038.009.058-.002 7.332-.004 14.666 0 21.997 0 .028.005.054.006.081-.002 8.762-.002 17.619.004 26.383 0 .027.005.052.006.078-.002 10.52-.003 21.155.003 31.679 0 .022.005.043.005.064-.002 12.63-.002 25.405.005 38.04 0 .02.004.038.004.057-.001 15.162-.001 30.499.006 45.666 0 .015.003.028.003.042-.003 18.202-.003 36.616.008 54.826l.002.03c-.004 21.85-.004 43.95.009 65.809v.01c-.004 26.226-.004 52.756.01 78.994.003 6.634 7.901 10.439 21.675 10.439h.024c13.004 0 28.654-3.47 40.842-9.044 14.245-6.515 22.088-15.032 22.086-23.984v-.109c-.04-71.632-.08-143.262-.112-214.896l198.393-215.679c3.714-4.037 4.865-7.716 3.42-10.935z" transform="translate(-117 -142)"/>
                </g>
                <path fill="#7F267A" d="M191.48 175.41c1.33-.022 4.72.752 2.888 2.756l-26.357 28.802c.003 9.572.009 19.142.015 28.714 0 3.956-11.218 5.907-11.219 3.017v-29.767c0-.797.459-1.51 1.185-2.122 8.684-9.49 17.37-18.98 26.054-28.472 1.812-1.978 4.823-2.885 7.433-2.929zm-52.28.912c-1.336-2.814 9.546-6.536 11.21-3.033 3.275 6.9 6.55 13.799 9.826 20.697 1.336 2.814-9.546 6.537-11.209 3.034-3.276-6.898-6.55-13.797-9.826-20.698z" transform="translate(-117 -142)"/>
            </g>
        </g>
        <use fill="url(#prefix__d)" xlink:href="#prefix__c"/>
    </g>
</svg>
