<svg xmlns="http://www.w3.org/2000/svg" width="24" height="24" viewBox="0 0 24 24">
    <path fill="#FFF" d="M2.5 5.027V3.852c0-.559.454-1.008 1.018-1.008h4.75l.399-.786c.17-.344.521-.558.907-.558h4.848c.386 0 .738.214.911.558l.4.786h4.75c.563 0 1.017.45 1.017 1.008v1.175c0 .277-.229.504-.509.504H3.01c-.28 0-.509-.227-.509-.504zM20.143 7.38v13.605c0 1.113-.912 2.016-2.036 2.016H5.893c-1.124 0-2.036-.903-2.036-2.016V7.38c0-.277.23-.504.51-.504h15.267c.28 0 .509.227.509.504zM8.607 10.234c0-.37-.305-.671-.678-.671-.374 0-.679.302-.679.671v9.407c0 .37.305.672.679.672.373 0 .678-.303.678-.672v-9.407zm4.072 0c0-.37-.306-.671-.679-.671-.373 0-.679.302-.679.671v9.407c0 .37.306.672.679.672.373 0 .679-.303.679-.672v-9.407zm4.071 0c0-.37-.305-.671-.679-.671-.373 0-.678.302-.678.671v9.407c0 .37.305.672.678.672.374 0 .679-.303.679-.672v-9.407z"/>
</svg>
