<svg xmlns="http://www.w3.org/2000/svg" width="144" height="144" viewBox="0 0 144 144">
    <defs>
        <linearGradient id="prefix__a" x1="100%" x2="0%" y1="0%" y2="100%">
            <stop offset="0%" stop-color="#B837B3"/>
            <stop offset="100%" stop-color="#7F267B"/>
        </linearGradient>
        <linearGradient id="prefix__b" x1="100%" x2="0%" y1="50%" y2="50%">
            <stop offset="0%" stop-color="#AD45A8"/>
            <stop offset="100%" stop-color="#D67BD3"/>
        </linearGradient>
    </defs>
    <g fill="none" transform="translate(-7 -7)">
        <circle cx="79" cy="79" r="72" fill="#FFF"/>
        <path fill="url(#prefix__a)" d="M6.545 78.545c0-39.764 32.236-72 72-72 39.765 0 72 32.236 72 72 0 39.765-32.235 72-72 72-39.764 0-72-32.235-72-72zm21.036 36.543c11.381 15.845 29.966 26.167 50.964 26.167 20.999 0 39.584-10.322 50.965-26.167a19.16 19.16 0 00-14.382-16.365l-9.399-2.35c-7.568 6.499-17.103 10.043-27.184 10.043-10.08 0-19.615-3.544-27.184-10.042l-9.399 2.35a19.161 19.161 0 00-14.381 16.364zM46.029 64.61c0 17.958 14.558 32.516 32.516 32.516 17.959 0 32.517-14.558 32.517-32.516S96.504 32.094 78.545 32.094c-17.958 0-32.516 14.558-32.516 32.516z" transform="translate(.455 .455)"/>
        <circle cx="79" cy="79" r="71.5" stroke="url(#prefix__b)"/>
    </g>
</svg>
