<svg xmlns="http://www.w3.org/2000/svg" width="24" height="24" viewBox="0 0 24 24">
    <defs>
        <linearGradient id="prefix__a" x1="100%" x2="0%" y1="32%" y2="68%">
            <stop offset="0%" stop-color="#B837B3"/>
            <stop offset="100%" stop-color="#7F267B"/>
        </linearGradient>
    </defs>
    <path fill="url(#prefix__a)" d="M8.25 8.55a3.75 3.75 0 117.5 0 3.75 3.75 0 01-7.5 0zM1.8 10.2a3 3 0 116 0 3 3 0 01-6 0zm14.4 0a3 3 0 116 0 3 3 0 01-6 0zm-.825 2.85A2.625 2.625 0 0118 15.675V18.3a.9.9 0 01-.9.9H6.9a.9.9 0 01-.9-.9v-2.625a2.625 2.625 0 012.625-2.625h.67a5.252 5.252 0 005.41 0h.67zM4.8 15.675c0-.45.078-.88.22-1.28a4.198 4.198 0 01-2.385-.595H2.1A2.1 2.1 0 000 15.9v1.2a.9.9 0 00.9.9h3.9v-2.325zM21.9 13.8h-.535a4.197 4.197 0 01-2.386.594c.147.411.221.845.221 1.281V18h3.9a.9.9 0 00.9-.9v-1.2a2.1 2.1 0 00-2.1-2.1z"/>
</svg>
